<svg xmlns="http://www.w3.org/2000/svg" viewBox="0 0 181.07 390.67"><defs><style>.cls-1{fill:#469fa6;}.cls-2{fill:#fff;}</style></defs><title>13</title><g id="Layer_2" data-name="Layer 2"><g id="Layer_1-2" data-name="Layer 1"><path class="cls-1" d="M43.75,0A137,137,0,0,0,0,7.12v260.4A137.33,137.33,0,1,0,43.75,0Z"/><circle class="cls-2" cx="76.48" cy="101.85" r="2.62"/><circle class="cls-2" cx="76.48" cy="111.08" r="2.62"/><circle class="cls-2" cx="76.48" cy="120.31" r="2.62"/><circle class="cls-2" cx="76.48" cy="129.54" r="2.62"/><circle class="cls-2" cx="76.48" cy="138.78" r="2.62"/><circle class="cls-2" cx="76.48" cy="148.01" r="2.62"/><circle class="cls-2" cx="76.48" cy="157.24" r="2.62"/><circle class="cls-2" cx="76.48" cy="166.47" r="2.62"/><circle class="cls-2" cx="76.48" cy="175.7" r="2.62"/><circle class="cls-2" cx="76.48" cy="184.94" r="2.62"/><circle class="cls-2" cx="76.48" cy="194.17" r="2.62"/><circle class="cls-2" cx="76.48" cy="203.4" r="2.62"/><circle class="cls-2" cx="76.48" cy="212.63" r="2.62"/><circle class="cls-2" cx="76.48" cy="221.87" r="2.62"/><circle class="cls-2" cx="76.48" cy="231.1" r="2.62"/><circle class="cls-2" cx="76.48" cy="240.33" r="2.62"/><circle class="cls-2" cx="76.48" cy="249.56" r="2.62"/><circle class="cls-2" cx="76.48" cy="258.79" r="2.62"/><circle class="cls-2" cx="76.48" cy="268.03" r="2.62"/><circle class="cls-2" cx="76.48" cy="277.26" r="2.62"/><circle class="cls-2" cx="76.48" cy="286.49" r="2.62"/><circle class="cls-2" cx="76.48" cy="295.72" r="2.62"/><circle class="cls-2" cx="76.48" cy="304.96" r="2.62"/><circle class="cls-2" cx="76.48" cy="314.19" r="2.62"/><circle class="cls-2" cx="76.48" cy="323.42" r="2.62"/><circle class="cls-2" cx="76.48" cy="332.65" r="2.62"/><circle class="cls-2" cx="76.48" cy="341.88" r="2.62"/><circle class="cls-2" cx="76.48" cy="351.12" r="2.62"/><circle class="cls-2" cx="76.48" cy="360.35" r="2.62"/><circle class="cls-2" cx="76.48" cy="369.58" r="2.62"/><circle class="cls-2" cx="76.48" cy="378.81" r="2.62"/><circle class="cls-2" cx="76.48" cy="388.05" r="2.62"/><circle class="cls-2" cx="68.27" cy="101.85" r="2.62"/><circle class="cls-2" cx="68.27" cy="111.08" r="2.62"/><circle class="cls-2" cx="68.27" cy="120.31" r="2.62"/><circle class="cls-2" cx="68.27" cy="129.54" r="2.62"/><circle class="cls-2" cx="68.27" cy="138.78" r="2.62"/><circle class="cls-2" cx="68.27" cy="148.01" r="2.62"/><circle class="cls-2" cx="68.27" cy="157.24" r="2.62"/><circle class="cls-2" cx="68.27" cy="166.47" r="2.62"/><circle class="cls-2" cx="68.27" cy="175.7" r="2.62"/><circle class="cls-2" cx="68.27" cy="184.94" r="2.62"/><circle class="cls-2" cx="68.27" cy="194.17" r="2.62"/><circle class="cls-2" cx="68.27" cy="203.4" r="2.62"/><circle class="cls-2" cx="68.27" cy="212.63" r="2.62"/><circle class="cls-2" cx="68.27" cy="221.87" r="2.62"/><circle class="cls-2" cx="68.27" cy="231.1" r="2.62"/><circle class="cls-2" cx="68.27" cy="240.33" r="2.62"/><circle class="cls-2" cx="68.27" cy="249.56" r="2.62"/><circle class="cls-2" cx="68.27" cy="258.79" r="2.62"/><circle class="cls-2" cx="68.27" cy="268.03" r="2.62"/><circle class="cls-2" cx="68.27" cy="277.26" r="2.62"/><circle class="cls-2" cx="68.27" cy="286.49" r="2.62"/><circle class="cls-2" cx="68.27" cy="295.72" r="2.62"/><circle class="cls-2" cx="68.27" cy="304.96" r="2.62"/><circle class="cls-2" cx="68.27" cy="314.19" r="2.62"/><circle class="cls-2" cx="68.27" cy="323.42" r="2.62"/><circle class="cls-2" cx="68.27" cy="332.65" r="2.62"/><circle class="cls-2" cx="68.27" cy="341.88" r="2.62"/><circle class="cls-2" cx="68.27" cy="351.12" r="2.62"/><circle class="cls-2" cx="68.27" cy="360.35" r="2.62"/><circle class="cls-2" cx="68.27" cy="369.58" r="2.62"/><circle class="cls-2" cx="68.27" cy="378.81" r="2.62"/><circle class="cls-2" cx="68.27" cy="388.05" r="2.62"/><circle class="cls-2" cx="60.07" cy="101.85" r="2.62"/><circle class="cls-2" cx="60.07" cy="111.08" r="2.62"/><circle class="cls-2" cx="60.07" cy="120.31" r="2.62"/><circle class="cls-2" cx="60.07" cy="129.54" r="2.62"/><circle class="cls-2" cx="60.07" cy="138.78" r="2.62"/><circle class="cls-2" cx="60.07" cy="148.01" r="2.62"/><circle class="cls-2" cx="60.07" cy="157.24" r="2.62"/><circle class="cls-2" cx="60.07" cy="166.47" r="2.62"/><circle class="cls-2" cx="60.07" cy="175.7" r="2.62"/><circle class="cls-2" cx="60.07" cy="184.94" r="2.62"/><circle class="cls-2" cx="60.07" cy="194.17" r="2.62"/><circle class="cls-2" cx="60.07" cy="203.4" r="2.62"/><circle class="cls-2" cx="60.07" cy="212.63" r="2.62"/><circle class="cls-2" cx="60.07" cy="221.87" r="2.62"/><circle class="cls-2" cx="60.07" cy="231.1" r="2.62"/><circle class="cls-2" cx="60.07" cy="240.33" r="2.62"/><circle class="cls-2" cx="60.07" cy="249.56" r="2.62"/><circle class="cls-2" cx="60.07" cy="258.79" r="2.62"/><circle class="cls-2" cx="60.07" cy="268.03" r="2.62"/><circle class="cls-2" cx="60.07" cy="277.26" r="2.62"/><circle class="cls-2" cx="60.07" cy="286.49" r="2.62"/><circle class="cls-2" cx="60.07" cy="295.72" r="2.62"/><circle class="cls-2" cx="60.07" cy="304.96" r="2.62"/><circle class="cls-2" cx="60.07" cy="314.19" r="2.62"/><circle class="cls-2" cx="60.07" cy="323.42" r="2.62"/><circle class="cls-2" cx="60.07" cy="332.65" r="2.62"/><circle class="cls-2" cx="60.07" cy="341.88" r="2.62"/><circle class="cls-2" cx="60.07" cy="351.12" r="2.62"/><circle class="cls-2" cx="60.07" cy="360.35" r="2.62"/><circle class="cls-2" cx="60.07" cy="369.58" r="2.62"/><circle class="cls-2" cx="60.07" cy="378.81" r="2.62"/><circle class="cls-2" cx="60.07" cy="388.05" r="2.62"/><circle class="cls-2" cx="51.86" cy="101.85" r="2.62"/><circle class="cls-2" cx="51.86" cy="111.08" r="2.62"/><circle class="cls-2" cx="51.86" cy="120.31" r="2.62"/><circle class="cls-2" cx="51.86" cy="129.54" r="2.62"/><circle class="cls-2" cx="51.86" cy="138.78" r="2.62"/><circle class="cls-2" cx="51.86" cy="148.01" r="2.62"/><circle class="cls-2" cx="51.86" cy="157.24" r="2.62"/><circle class="cls-2" cx="51.86" cy="166.47" r="2.62"/><circle class="cls-2" cx="51.86" cy="175.7" r="2.62"/><circle class="cls-2" cx="51.86" cy="184.94" r="2.62"/><circle class="cls-2" cx="51.86" cy="194.17" r="2.62"/><circle class="cls-2" cx="51.86" cy="203.4" r="2.62"/><circle class="cls-2" cx="51.86" cy="212.63" r="2.62"/><circle class="cls-2" cx="51.86" cy="221.87" r="2.62"/><circle class="cls-2" cx="51.86" cy="231.1" r="2.62"/><circle class="cls-2" cx="51.86" cy="240.33" r="2.62"/><circle class="cls-2" cx="51.86" cy="249.56" r="2.62"/><circle class="cls-2" cx="51.86" cy="258.79" r="2.62"/><circle class="cls-2" cx="51.86" cy="268.03" r="2.62"/><circle class="cls-2" cx="51.86" cy="277.26" r="2.62"/><circle class="cls-2" cx="51.86" cy="286.49" r="2.62"/><circle class="cls-2" cx="51.86" cy="295.72" r="2.62"/><circle class="cls-2" cx="51.86" cy="304.96" r="2.62"/><circle class="cls-2" cx="51.86" cy="314.19" r="2.62"/><circle class="cls-2" cx="51.86" cy="323.42" r="2.62"/><circle class="cls-2" cx="51.86" cy="332.65" r="2.62"/><circle class="cls-2" cx="51.86" cy="341.88" r="2.62"/><circle class="cls-2" cx="51.86" cy="351.12" r="2.62"/><circle class="cls-2" cx="51.86" cy="360.35" r="2.62"/><circle class="cls-2" cx="51.86" cy="369.58" r="2.62"/><circle class="cls-2" cx="51.86" cy="378.81" r="2.62"/><circle class="cls-2" cx="51.86" cy="388.05" r="2.62"/><circle class="cls-2" cx="43.65" cy="101.85" r="2.62"/><circle class="cls-2" cx="43.65" cy="111.08" r="2.62"/><circle class="cls-2" cx="43.65" cy="120.31" r="2.62"/><circle class="cls-2" cx="43.65" cy="129.54" r="2.62"/><circle class="cls-2" cx="43.65" cy="138.78" r="2.62"/><circle class="cls-2" cx="43.65" cy="148.01" r="2.62"/><circle class="cls-2" cx="43.65" cy="157.24" r="2.62"/><circle class="cls-2" cx="43.65" cy="166.47" r="2.62"/><circle class="cls-2" cx="43.65" cy="175.7" r="2.62"/><circle class="cls-2" cx="43.65" cy="184.94" r="2.62"/><circle class="cls-2" cx="43.65" cy="194.17" r="2.62"/><circle class="cls-2" cx="43.65" cy="203.4" r="2.62"/><circle class="cls-2" cx="43.65" cy="212.63" r="2.62"/><circle class="cls-2" cx="43.65" cy="221.87" r="2.62"/><circle class="cls-2" cx="43.65" cy="231.1" r="2.62"/><circle class="cls-2" cx="43.65" cy="240.33" r="2.62"/><circle class="cls-2" cx="43.65" cy="249.56" r="2.62"/><circle class="cls-2" cx="43.65" cy="258.79" r="2.62"/><circle class="cls-2" cx="43.65" cy="268.03" r="2.62"/><circle class="cls-2" cx="43.65" cy="277.26" r="2.62"/><circle class="cls-2" cx="43.65" cy="286.49" r="2.62"/><circle class="cls-2" cx="43.65" cy="295.72" r="2.62"/><circle class="cls-2" cx="43.65" cy="304.96" r="2.62"/><circle class="cls-2" cx="43.65" cy="314.19" r="2.62"/><circle class="cls-2" cx="43.65" cy="323.42" r="2.62"/><circle class="cls-2" cx="43.65" cy="332.65" r="2.62"/><circle class="cls-2" cx="43.65" cy="341.88" r="2.62"/><circle class="cls-2" cx="43.65" cy="351.12" r="2.62"/><circle class="cls-2" cx="43.65" cy="360.35" r="2.62"/><circle class="cls-2" cx="43.65" cy="369.58" r="2.62"/><circle class="cls-2" cx="43.65" cy="378.81" r="2.62"/><circle class="cls-2" cx="43.65" cy="388.05" r="2.62"/><circle class="cls-2" cx="35.45" cy="101.85" r="2.62"/><circle class="cls-2" cx="35.45" cy="111.08" r="2.62"/><circle class="cls-2" cx="35.45" cy="120.31" r="2.62"/><circle class="cls-2" cx="35.45" cy="129.54" r="2.62"/><circle class="cls-2" cx="35.45" cy="138.78" r="2.62"/><circle class="cls-2" cx="35.45" cy="148.01" r="2.62"/><circle class="cls-2" cx="35.45" cy="157.24" r="2.62"/><circle class="cls-2" cx="35.45" cy="166.47" r="2.62"/><circle class="cls-2" cx="35.45" cy="175.7" r="2.62"/><circle class="cls-2" cx="35.45" cy="184.94" r="2.62"/><circle class="cls-2" cx="35.45" cy="194.17" r="2.62"/><circle class="cls-2" cx="35.45" cy="203.4" r="2.62"/><circle class="cls-2" cx="35.45" cy="212.63" r="2.62"/><circle class="cls-2" cx="35.45" cy="221.87" r="2.62"/><circle class="cls-2" cx="35.45" cy="231.1" r="2.62"/><circle class="cls-2" cx="35.45" cy="240.33" r="2.62"/><circle class="cls-2" cx="35.45" cy="249.56" r="2.62"/><circle class="cls-2" cx="35.45" cy="258.79" r="2.62"/><circle class="cls-2" cx="35.45" cy="268.03" r="2.62"/><circle class="cls-2" cx="35.45" cy="277.26" r="2.62"/><circle class="cls-2" cx="35.45" cy="286.49" r="2.62"/><circle class="cls-2" cx="35.45" cy="295.72" r="2.62"/><circle class="cls-2" cx="35.45" cy="304.96" r="2.62"/><circle class="cls-2" cx="35.45" cy="314.19" r="2.62"/><circle class="cls-2" cx="35.45" cy="323.42" r="2.62"/><circle class="cls-2" cx="35.45" cy="332.65" r="2.62"/><circle class="cls-2" cx="35.45" cy="341.88" r="2.62"/><circle class="cls-2" cx="35.45" cy="351.12" r="2.62"/><circle class="cls-2" cx="35.45" cy="360.35" r="2.62"/><circle class="cls-2" cx="35.45" cy="369.58" r="2.62"/><circle class="cls-2" cx="35.45" cy="378.81" r="2.62"/><circle class="cls-2" cx="35.45" cy="388.05" r="2.62"/><circle class="cls-2" cx="27.24" cy="101.85" r="2.62"/><circle class="cls-2" cx="27.24" cy="111.08" r="2.62"/><circle class="cls-2" cx="27.24" cy="120.31" r="2.62"/><circle class="cls-2" cx="27.24" cy="129.54" r="2.62"/><circle class="cls-2" cx="27.24" cy="138.78" r="2.62"/><circle class="cls-2" cx="27.24" cy="148.01" r="2.62"/><circle class="cls-2" cx="27.24" cy="157.24" r="2.62"/><circle class="cls-2" cx="27.24" cy="166.47" r="2.62"/><circle class="cls-2" cx="27.24" cy="175.7" r="2.62"/><circle class="cls-2" cx="27.24" cy="184.94" r="2.62"/><circle class="cls-2" cx="27.24" cy="194.17" r="2.62"/><circle class="cls-2" cx="27.24" cy="203.4" r="2.62"/><circle class="cls-2" cx="27.24" cy="212.63" r="2.62"/><circle class="cls-2" cx="27.24" cy="221.87" r="2.62"/><circle class="cls-2" cx="27.24" cy="231.1" r="2.62"/><circle class="cls-2" cx="27.24" cy="240.33" r="2.62"/><circle class="cls-2" cx="27.24" cy="249.56" r="2.62"/><circle class="cls-2" cx="27.24" cy="258.79" r="2.62"/><circle class="cls-2" cx="27.24" cy="268.03" r="2.62"/><circle class="cls-2" cx="27.24" cy="277.26" r="2.62"/><circle class="cls-2" cx="27.24" cy="286.49" r="2.62"/><circle class="cls-2" cx="27.24" cy="295.72" r="2.62"/><circle class="cls-2" cx="27.24" cy="304.96" r="2.62"/><circle class="cls-2" cx="27.24" cy="314.19" r="2.62"/><circle class="cls-2" cx="27.24" cy="323.42" r="2.62"/><circle class="cls-2" cx="27.24" cy="332.65" r="2.62"/><circle class="cls-2" cx="27.24" cy="341.88" r="2.62"/><circle class="cls-2" cx="27.24" cy="351.12" r="2.62"/><circle class="cls-2" cx="27.24" cy="360.35" r="2.62"/><circle class="cls-2" cx="27.24" cy="369.58" r="2.62"/><circle class="cls-2" cx="27.24" cy="378.81" r="2.62"/><circle class="cls-2" cx="27.24" cy="388.05" r="2.62"/><circle class="cls-2" cx="19.03" cy="101.85" r="2.62"/><circle class="cls-2" cx="19.03" cy="111.08" r="2.62"/><circle class="cls-2" cx="19.03" cy="120.31" r="2.62"/><circle class="cls-2" cx="19.03" cy="129.54" r="2.62"/><circle class="cls-2" cx="19.03" cy="138.78" r="2.62"/><circle class="cls-2" cx="19.03" cy="148.01" r="2.62"/><circle class="cls-2" cx="19.03" cy="157.24" r="2.62"/><circle class="cls-2" cx="19.03" cy="166.47" r="2.62"/><circle class="cls-2" cx="19.03" cy="175.7" r="2.62"/><circle class="cls-2" cx="19.03" cy="184.94" r="2.62"/><circle class="cls-2" cx="19.03" cy="194.17" r="2.62"/><circle class="cls-2" cx="19.03" cy="203.4" r="2.62"/><circle class="cls-2" cx="19.03" cy="212.63" r="2.62"/><circle class="cls-2" cx="19.03" cy="221.87" r="2.62"/><circle class="cls-2" cx="19.03" cy="231.1" r="2.62"/><circle class="cls-2" cx="19.03" cy="240.33" r="2.62"/><circle class="cls-2" cx="19.03" cy="249.56" r="2.62"/><circle class="cls-2" cx="19.03" cy="258.79" r="2.62"/><circle class="cls-2" cx="19.03" cy="268.03" r="2.62"/><circle class="cls-2" cx="19.03" cy="277.26" r="2.62"/><circle class="cls-2" cx="19.03" cy="286.49" r="2.62"/><circle class="cls-2" cx="19.03" cy="295.72" r="2.62"/><circle class="cls-2" cx="19.03" cy="304.96" r="2.62"/><circle class="cls-2" cx="19.03" cy="314.19" r="2.62"/><circle class="cls-2" cx="19.03" cy="323.42" r="2.62"/><circle class="cls-2" cx="19.03" cy="332.65" r="2.62"/><circle class="cls-2" cx="19.03" cy="341.88" r="2.62"/><circle class="cls-2" cx="19.03" cy="351.12" r="2.62"/><circle class="cls-2" cx="19.03" cy="360.35" r="2.62"/><circle class="cls-2" cx="19.03" cy="369.58" r="2.62"/><circle class="cls-2" cx="19.03" cy="378.81" r="2.62"/><circle class="cls-2" cx="19.03" cy="388.05" r="2.62"/><circle class="cls-2" cx="10.83" cy="101.85" r="2.62"/><circle class="cls-2" cx="10.83" cy="111.08" r="2.62"/><circle class="cls-2" cx="10.83" cy="120.31" r="2.62"/><circle class="cls-2" cx="10.83" cy="129.54" r="2.62"/><circle class="cls-2" cx="10.83" cy="138.78" r="2.62"/><circle class="cls-2" cx="10.83" cy="148.01" r="2.62"/><circle class="cls-2" cx="10.83" cy="157.24" r="2.62"/><circle class="cls-2" cx="10.83" cy="166.47" r="2.62"/><circle class="cls-2" cx="10.83" cy="175.7" r="2.62"/><circle class="cls-2" cx="10.83" cy="184.94" r="2.62"/><circle class="cls-2" cx="10.83" cy="194.17" r="2.62"/><circle class="cls-2" cx="10.83" cy="203.4" r="2.62"/><circle class="cls-2" cx="10.83" cy="212.63" r="2.62"/><circle class="cls-2" cx="10.83" cy="221.87" r="2.62"/><circle class="cls-2" cx="10.83" cy="231.1" r="2.62"/><circle class="cls-2" cx="10.83" cy="240.33" r="2.62"/><circle class="cls-2" cx="10.83" cy="249.56" r="2.62"/><circle class="cls-2" cx="10.83" cy="258.79" r="2.62"/><circle class="cls-2" cx="10.83" cy="268.03" r="2.62"/><circle class="cls-2" cx="10.83" cy="277.26" r="2.62"/><circle class="cls-2" cx="10.83" cy="286.49" r="2.62"/><circle class="cls-2" cx="10.83" cy="295.72" r="2.62"/><circle class="cls-2" cx="10.83" cy="304.96" r="2.62"/><circle class="cls-2" cx="10.83" cy="314.19" r="2.62"/><circle class="cls-2" cx="10.83" cy="323.42" r="2.62"/><circle class="cls-2" cx="10.83" cy="332.65" r="2.62"/><circle class="cls-2" cx="10.83" cy="341.88" r="2.62"/><circle class="cls-2" cx="10.83" cy="351.12" r="2.62"/><circle class="cls-2" cx="10.83" cy="360.35" r="2.62"/><circle class="cls-2" cx="10.83" cy="369.58" r="2.62"/><circle class="cls-2" cx="10.83" cy="378.81" r="2.62"/><circle class="cls-2" cx="10.83" cy="388.05" r="2.62"/><circle class="cls-2" cx="2.62" cy="101.85" r="2.62"/><circle class="cls-2" cx="2.62" cy="111.08" r="2.62"/><circle class="cls-2" cx="2.62" cy="120.31" r="2.62"/><circle class="cls-2" cx="2.62" cy="129.54" r="2.62"/><circle class="cls-2" cx="2.62" cy="138.78" r="2.62"/><circle class="cls-2" cx="2.62" cy="148.01" r="2.62"/><circle class="cls-2" cx="2.62" cy="157.24" r="2.62"/><circle class="cls-2" cx="2.62" cy="166.47" r="2.62"/><circle class="cls-2" cx="2.62" cy="175.7" r="2.62"/><circle class="cls-2" cx="2.62" cy="184.94" r="2.62"/><circle class="cls-2" cx="2.62" cy="194.17" r="2.62"/><circle class="cls-2" cx="2.62" cy="203.4" r="2.62"/><circle class="cls-2" cx="2.62" cy="212.63" r="2.62"/><circle class="cls-2" cx="2.62" cy="221.87" r="2.62"/><circle class="cls-2" cx="2.62" cy="231.1" r="2.62"/><circle class="cls-2" cx="2.62" cy="240.33" r="2.62"/><circle class="cls-2" cx="2.62" cy="249.56" r="2.62"/><circle class="cls-2" cx="2.62" cy="258.79" r="2.62"/><circle class="cls-2" cx="2.62" cy="268.03" r="2.62"/><circle class="cls-2" cx="2.62" cy="277.26" r="2.62"/><circle class="cls-2" cx="2.62" cy="286.49" r="2.62"/><circle class="cls-2" cx="2.62" cy="295.72" r="2.62"/><circle class="cls-2" cx="2.62" cy="304.96" r="2.62"/><circle class="cls-2" cx="2.62" cy="314.19" r="2.62"/><circle class="cls-2" cx="2.62" cy="323.42" r="2.62"/><circle class="cls-2" cx="2.62" cy="332.65" r="2.62"/><circle class="cls-2" cx="2.62" cy="341.88" r="2.62"/><circle class="cls-2" cx="2.62" cy="351.12" r="2.62"/><circle class="cls-2" cx="2.62" cy="360.35" r="2.62"/><circle class="cls-2" cx="2.62" cy="369.58" r="2.62"/><circle class="cls-2" cx="2.62" cy="378.81" r="2.62"/><circle class="cls-2" cx="2.62" cy="388.05" r="2.62"/></g></g></svg>