<svg xmlns="http://www.w3.org/2000/svg" viewBox="0 0 139.35 494.41"><defs><style>.cls-1{fill:#469fa6;}.cls-2{fill:#e56251;}</style></defs><title>8</title><g id="Layer_2" data-name="Layer 2"><g id="Layer_1-2" data-name="Layer 1"><path class="cls-1" d="M83.5,494.41H0V205H83.5ZM6.24,488.17h71v-277h-71Z"/><circle class="cls-2" cx="136.04" cy="3.31" r="3.31"/><circle class="cls-2" cx="136.04" cy="14.96" r="3.31"/><circle class="cls-2" cx="136.04" cy="26.61" r="3.31"/><circle class="cls-2" cx="136.04" cy="38.26" r="3.31"/><circle class="cls-2" cx="136.04" cy="49.91" r="3.31"/><circle class="cls-2" cx="136.04" cy="61.55" r="3.31"/><circle class="cls-2" cx="136.04" cy="73.2" r="3.31"/><circle class="cls-2" cx="136.04" cy="84.85" r="3.31"/><circle class="cls-2" cx="136.04" cy="96.5" r="3.31"/><circle class="cls-2" cx="136.04" cy="108.15" r="3.31"/><circle class="cls-2" cx="136.04" cy="119.8" r="3.31"/><circle class="cls-2" cx="136.04" cy="131.45" r="3.31"/><circle class="cls-2" cx="136.04" cy="143.1" r="3.31"/><circle class="cls-2" cx="136.04" cy="154.75" r="3.31"/><circle class="cls-2" cx="136.04" cy="166.4" r="3.31"/><circle class="cls-2" cx="136.04" cy="178.05" r="3.31"/><circle class="cls-2" cx="136.04" cy="189.7" r="3.31"/><circle class="cls-2" cx="136.04" cy="201.35" r="3.31"/><circle class="cls-2" cx="136.04" cy="213" r="3.31"/><circle class="cls-2" cx="136.04" cy="224.65" r="3.31"/><circle class="cls-2" cx="136.04" cy="236.29" r="3.31"/><circle class="cls-2" cx="136.04" cy="247.94" r="3.31"/><circle class="cls-2" cx="136.04" cy="259.59" r="3.31"/><circle class="cls-2" cx="136.04" cy="271.24" r="3.31"/><circle class="cls-2" cx="136.04" cy="282.89" r="3.31"/><circle class="cls-2" cx="136.04" cy="294.54" r="3.31"/><circle class="cls-2" cx="136.04" cy="306.19" r="3.31"/><circle class="cls-2" cx="136.04" cy="317.84" r="3.31"/><circle class="cls-2" cx="136.04" cy="329.49" r="3.31"/><circle class="cls-2" cx="136.04" cy="341.14" r="3.31"/><circle class="cls-2" cx="136.04" cy="352.79" r="3.31"/><circle class="cls-2" cx="136.04" cy="364.44" r="3.31"/><circle class="cls-2" cx="125.69" cy="3.31" r="3.31"/><circle class="cls-2" cx="125.69" cy="14.96" r="3.31"/><circle class="cls-2" cx="125.69" cy="26.61" r="3.31"/><circle class="cls-2" cx="125.69" cy="38.26" r="3.31"/><circle class="cls-2" cx="125.69" cy="49.91" r="3.31"/><circle class="cls-2" cx="125.69" cy="61.55" r="3.31"/><circle class="cls-2" cx="125.69" cy="73.2" r="3.31"/><circle class="cls-2" cx="125.69" cy="84.85" r="3.31"/><circle class="cls-2" cx="125.69" cy="96.5" r="3.31"/><circle class="cls-2" cx="125.69" cy="108.15" r="3.31"/><circle class="cls-2" cx="125.69" cy="119.8" r="3.31"/><circle class="cls-2" cx="125.69" cy="131.45" r="3.31"/><circle class="cls-2" cx="125.69" cy="143.1" r="3.31"/><circle class="cls-2" cx="125.69" cy="154.75" r="3.31"/><circle class="cls-2" cx="125.69" cy="166.4" r="3.31"/><circle class="cls-2" cx="125.69" cy="178.05" r="3.31"/><circle class="cls-2" cx="125.69" cy="189.7" r="3.31"/><circle class="cls-2" cx="125.69" cy="201.35" r="3.31"/><circle class="cls-2" cx="125.69" cy="213" r="3.31"/><circle class="cls-2" cx="125.69" cy="224.65" r="3.31"/><circle class="cls-2" cx="125.69" cy="236.29" r="3.31"/><circle class="cls-2" cx="125.69" cy="247.94" r="3.31"/><circle class="cls-2" cx="125.69" cy="259.59" r="3.31"/><circle class="cls-2" cx="125.69" cy="271.24" r="3.31"/><circle class="cls-2" cx="125.69" cy="282.89" r="3.31"/><circle class="cls-2" cx="125.69" cy="294.54" r="3.31"/><circle class="cls-2" cx="125.69" cy="306.19" r="3.31"/><circle class="cls-2" cx="125.69" cy="317.84" r="3.31"/><circle class="cls-2" cx="125.69" cy="329.49" r="3.31"/><circle class="cls-2" cx="125.69" cy="341.14" r="3.31"/><circle class="cls-2" cx="125.69" cy="352.79" r="3.31"/><circle class="cls-2" cx="125.69" cy="364.44" r="3.31"/><circle class="cls-2" cx="115.33" cy="3.31" r="3.31"/><circle class="cls-2" cx="115.33" cy="14.96" r="3.31"/><circle class="cls-2" cx="115.33" cy="26.61" r="3.31"/><circle class="cls-2" cx="115.33" cy="38.26" r="3.31"/><circle class="cls-2" cx="115.33" cy="49.91" r="3.31"/><circle class="cls-2" cx="115.33" cy="61.55" r="3.31"/><circle class="cls-2" cx="115.33" cy="73.2" r="3.31"/><circle class="cls-2" cx="115.33" cy="84.85" r="3.31"/><circle class="cls-2" cx="115.33" cy="96.5" r="3.31"/><circle class="cls-2" cx="115.33" cy="108.15" r="3.31"/><circle class="cls-2" cx="115.33" cy="119.8" r="3.31"/><circle class="cls-2" cx="115.33" cy="131.45" r="3.31"/><circle class="cls-2" cx="115.33" cy="143.1" r="3.31"/><circle class="cls-2" cx="115.33" cy="154.75" r="3.31"/><circle class="cls-2" cx="115.33" cy="166.4" r="3.31"/><circle class="cls-2" cx="115.33" cy="178.05" r="3.31"/><circle class="cls-2" cx="115.33" cy="189.7" r="3.31"/><circle class="cls-2" cx="115.33" cy="201.35" r="3.31"/><circle class="cls-2" cx="115.33" cy="213" r="3.31"/><circle class="cls-2" cx="115.33" cy="224.65" r="3.31"/><circle class="cls-2" cx="115.33" cy="236.29" r="3.31"/><circle class="cls-2" cx="115.33" cy="247.94" r="3.31"/><circle class="cls-2" cx="115.33" cy="259.59" r="3.31"/><circle class="cls-2" cx="115.33" cy="271.24" r="3.31"/><circle class="cls-2" cx="115.33" cy="282.89" r="3.31"/><circle class="cls-2" cx="115.33" cy="294.54" r="3.31"/><circle class="cls-2" cx="115.33" cy="306.19" r="3.31"/><circle class="cls-2" cx="115.33" cy="317.84" r="3.31"/><circle class="cls-2" cx="115.33" cy="329.49" r="3.31"/><circle class="cls-2" cx="115.33" cy="341.14" r="3.31"/><circle class="cls-2" cx="115.33" cy="352.79" r="3.31"/><circle class="cls-2" cx="115.33" cy="364.44" r="3.31"/><circle class="cls-2" cx="104.98" cy="3.31" r="3.31"/><circle class="cls-2" cx="104.98" cy="14.96" r="3.31"/><circle class="cls-2" cx="104.98" cy="26.61" r="3.31"/><circle class="cls-2" cx="104.98" cy="38.26" r="3.31"/><circle class="cls-2" cx="104.98" cy="49.91" r="3.31"/><circle class="cls-2" cx="104.98" cy="61.55" r="3.31"/><circle class="cls-2" cx="104.98" cy="73.2" r="3.31"/><circle class="cls-2" cx="104.98" cy="84.85" r="3.31"/><circle class="cls-2" cx="104.98" cy="96.5" r="3.31"/><circle class="cls-2" cx="104.98" cy="108.15" r="3.31"/><circle class="cls-2" cx="104.98" cy="119.8" r="3.31"/><circle class="cls-2" cx="104.98" cy="131.45" r="3.31"/><circle class="cls-2" cx="104.98" cy="143.1" r="3.31"/><circle class="cls-2" cx="104.98" cy="154.75" r="3.31"/><circle class="cls-2" cx="104.98" cy="166.4" r="3.31"/><circle class="cls-2" cx="104.98" cy="178.05" r="3.31"/><circle class="cls-2" cx="104.98" cy="189.7" r="3.31"/><circle class="cls-2" cx="104.98" cy="201.35" r="3.31"/><circle class="cls-2" cx="104.98" cy="213" r="3.31"/><circle class="cls-2" cx="104.98" cy="224.65" r="3.31"/><circle class="cls-2" cx="104.98" cy="236.29" r="3.31"/><circle class="cls-2" cx="104.98" cy="247.94" r="3.31"/><circle class="cls-2" cx="104.98" cy="259.59" r="3.31"/><circle class="cls-2" cx="104.98" cy="271.24" r="3.31"/><circle class="cls-2" cx="104.98" cy="282.89" r="3.31"/><circle class="cls-2" cx="104.98" cy="294.54" r="3.31"/><circle class="cls-2" cx="104.98" cy="306.19" r="3.31"/><circle class="cls-2" cx="104.98" cy="317.84" r="3.31"/><circle class="cls-2" cx="104.98" cy="329.49" r="3.31"/><circle class="cls-2" cx="104.98" cy="341.14" r="3.31"/><circle class="cls-2" cx="104.98" cy="352.79" r="3.31"/><circle class="cls-2" cx="104.98" cy="364.44" r="3.31"/><circle class="cls-2" cx="94.62" cy="3.31" r="3.31"/><circle class="cls-2" cx="94.62" cy="14.96" r="3.31"/><circle class="cls-2" cx="94.62" cy="26.61" r="3.31"/><circle class="cls-2" cx="94.62" cy="38.26" r="3.31"/><circle class="cls-2" cx="94.62" cy="49.91" r="3.31"/><circle class="cls-2" cx="94.62" cy="61.55" r="3.31"/><circle class="cls-2" cx="94.62" cy="73.2" r="3.31"/><circle class="cls-2" cx="94.62" cy="84.85" r="3.31"/><circle class="cls-2" cx="94.62" cy="96.5" r="3.31"/><circle class="cls-2" cx="94.62" cy="108.15" r="3.31"/><circle class="cls-2" cx="94.62" cy="119.8" r="3.31"/><circle class="cls-2" cx="94.62" cy="131.45" r="3.31"/><circle class="cls-2" cx="94.62" cy="143.1" r="3.31"/><circle class="cls-2" cx="94.62" cy="154.75" r="3.31"/><circle class="cls-2" cx="94.62" cy="166.4" r="3.31"/><circle class="cls-2" cx="94.62" cy="178.05" r="3.31"/><circle class="cls-2" cx="94.62" cy="189.7" r="3.31"/><circle class="cls-2" cx="94.62" cy="201.35" r="3.31"/><circle class="cls-2" cx="94.62" cy="213" r="3.31"/><circle class="cls-2" cx="94.62" cy="224.65" r="3.31"/><circle class="cls-2" cx="94.62" cy="236.29" r="3.31"/><circle class="cls-2" cx="94.62" cy="247.94" r="3.31"/><circle class="cls-2" cx="94.62" cy="259.59" r="3.31"/><circle class="cls-2" cx="94.62" cy="271.24" r="3.31"/><circle class="cls-2" cx="94.62" cy="282.89" r="3.31"/><circle class="cls-2" cx="94.62" cy="294.54" r="3.31"/><circle class="cls-2" cx="94.62" cy="306.19" r="3.31"/><circle class="cls-2" cx="94.62" cy="317.84" r="3.31"/><circle class="cls-2" cx="94.62" cy="329.49" r="3.31"/><circle class="cls-2" cx="94.62" cy="341.14" r="3.31"/><circle class="cls-2" cx="94.62" cy="352.79" r="3.31"/><circle class="cls-2" cx="94.62" cy="364.44" r="3.31"/><circle class="cls-2" cx="84.27" cy="3.31" r="3.31"/><circle class="cls-2" cx="84.27" cy="14.96" r="3.31"/><circle class="cls-2" cx="84.27" cy="26.61" r="3.31"/><circle class="cls-2" cx="84.27" cy="38.26" r="3.31"/><circle class="cls-2" cx="84.27" cy="49.91" r="3.31"/><circle class="cls-2" cx="84.27" cy="61.55" r="3.31"/><circle class="cls-2" cx="84.27" cy="73.2" r="3.31"/><circle class="cls-2" cx="84.27" cy="84.85" r="3.31"/><circle class="cls-2" cx="84.27" cy="96.5" r="3.31"/><circle class="cls-2" cx="84.27" cy="108.15" r="3.31"/><circle class="cls-2" cx="84.27" cy="119.8" r="3.31"/><circle class="cls-2" cx="84.27" cy="131.45" r="3.31"/><circle class="cls-2" cx="84.27" cy="143.1" r="3.31"/><circle class="cls-2" cx="84.27" cy="154.75" r="3.31"/><circle class="cls-2" cx="84.27" cy="166.4" r="3.31"/><circle class="cls-2" cx="84.27" cy="178.05" r="3.31"/><circle class="cls-2" cx="84.27" cy="189.7" r="3.31"/><circle class="cls-2" cx="84.27" cy="201.35" r="3.31"/><circle class="cls-2" cx="84.27" cy="213" r="3.31"/><circle class="cls-2" cx="84.27" cy="224.65" r="3.31"/><circle class="cls-2" cx="84.27" cy="236.29" r="3.31"/><circle class="cls-2" cx="84.27" cy="247.94" r="3.31"/><circle class="cls-2" cx="84.27" cy="259.59" r="3.31"/><circle class="cls-2" cx="84.27" cy="271.24" r="3.31"/><circle class="cls-2" cx="84.27" cy="282.89" r="3.31"/><circle class="cls-2" cx="84.27" cy="294.54" r="3.31"/><circle class="cls-2" cx="84.27" cy="306.19" r="3.31"/><circle class="cls-2" cx="84.27" cy="317.84" r="3.31"/><circle class="cls-2" cx="84.27" cy="329.49" r="3.31"/><circle class="cls-2" cx="84.27" cy="341.14" r="3.31"/><circle class="cls-2" cx="84.27" cy="352.79" r="3.31"/><circle class="cls-2" cx="84.27" cy="364.44" r="3.31"/><circle class="cls-2" cx="73.91" cy="3.31" r="3.31"/><circle class="cls-2" cx="73.91" cy="14.96" r="3.31"/><circle class="cls-2" cx="73.91" cy="26.61" r="3.31"/><circle class="cls-2" cx="73.91" cy="38.26" r="3.31"/><circle class="cls-2" cx="73.91" cy="49.91" r="3.31"/><circle class="cls-2" cx="73.91" cy="61.55" r="3.31"/><circle class="cls-2" cx="73.91" cy="73.2" r="3.31"/><circle class="cls-2" cx="73.91" cy="84.85" r="3.31"/><circle class="cls-2" cx="73.91" cy="96.5" r="3.31"/><circle class="cls-2" cx="73.91" cy="108.15" r="3.31"/><circle class="cls-2" cx="73.91" cy="119.8" r="3.31"/><circle class="cls-2" cx="73.91" cy="131.45" r="3.31"/><circle class="cls-2" cx="73.91" cy="143.1" r="3.31"/><circle class="cls-2" cx="73.91" cy="154.75" r="3.31"/><circle class="cls-2" cx="73.91" cy="166.4" r="3.31"/><circle class="cls-2" cx="73.91" cy="178.05" r="3.31"/><circle class="cls-2" cx="73.91" cy="189.7" r="3.31"/><circle class="cls-2" cx="73.91" cy="201.35" r="3.31"/><circle class="cls-2" cx="73.91" cy="213" r="3.31"/><circle class="cls-2" cx="73.91" cy="224.65" r="3.31"/><circle class="cls-2" cx="73.91" cy="236.29" r="3.31"/><circle class="cls-2" cx="73.91" cy="247.94" r="3.31"/><circle class="cls-2" cx="73.91" cy="259.59" r="3.31"/><circle class="cls-2" cx="73.91" cy="271.24" r="3.31"/><circle class="cls-2" cx="73.91" cy="282.89" r="3.31"/><circle class="cls-2" cx="73.91" cy="294.54" r="3.31"/><circle class="cls-2" cx="73.91" cy="306.19" r="3.31"/><circle class="cls-2" cx="73.91" cy="317.84" r="3.31"/><circle class="cls-2" cx="73.91" cy="329.49" r="3.31"/><circle class="cls-2" cx="73.91" cy="341.14" r="3.31"/><circle class="cls-2" cx="73.91" cy="352.79" r="3.31"/><circle class="cls-2" cx="73.91" cy="364.44" r="3.31"/><circle class="cls-2" cx="63.56" cy="3.31" r="3.31"/><circle class="cls-2" cx="63.56" cy="14.96" r="3.31"/><circle class="cls-2" cx="63.56" cy="26.61" r="3.31"/><circle class="cls-2" cx="63.56" cy="38.26" r="3.31"/><circle class="cls-2" cx="63.56" cy="49.91" r="3.31"/><circle class="cls-2" cx="63.56" cy="61.55" r="3.31"/><circle class="cls-2" cx="63.56" cy="73.2" r="3.31"/><circle class="cls-2" cx="63.56" cy="84.85" r="3.31"/><circle class="cls-2" cx="63.56" cy="96.5" r="3.31"/><circle class="cls-2" cx="63.56" cy="108.15" r="3.31"/><circle class="cls-2" cx="63.56" cy="119.8" r="3.31"/><circle class="cls-2" cx="63.56" cy="131.45" r="3.31"/><circle class="cls-2" cx="63.56" cy="143.1" r="3.31"/><circle class="cls-2" cx="63.56" cy="154.75" r="3.31"/><circle class="cls-2" cx="63.56" cy="166.4" r="3.31"/><circle class="cls-2" cx="63.56" cy="178.05" r="3.31"/><circle class="cls-2" cx="63.56" cy="189.7" r="3.31"/><circle class="cls-2" cx="63.56" cy="201.35" r="3.31"/><circle class="cls-2" cx="63.56" cy="213" r="3.31"/><circle class="cls-2" cx="63.56" cy="224.65" r="3.31"/><circle class="cls-2" cx="63.56" cy="236.29" r="3.31"/><circle class="cls-2" cx="63.56" cy="247.94" r="3.31"/><circle class="cls-2" cx="63.56" cy="259.59" r="3.31"/><circle class="cls-2" cx="63.56" cy="271.24" r="3.31"/><circle class="cls-2" cx="63.56" cy="282.89" r="3.31"/><circle class="cls-2" cx="63.56" cy="294.54" r="3.31"/><circle class="cls-2" cx="63.56" cy="306.19" r="3.31"/><circle class="cls-2" cx="63.56" cy="317.84" r="3.31"/><circle class="cls-2" cx="63.56" cy="329.49" r="3.31"/><circle class="cls-2" cx="63.56" cy="341.14" r="3.31"/><circle class="cls-2" cx="63.56" cy="352.79" r="3.31"/><circle class="cls-2" cx="63.56" cy="364.44" r="3.31"/><circle class="cls-2" cx="53.2" cy="3.31" r="3.31"/><circle class="cls-2" cx="53.2" cy="14.96" r="3.31"/><circle class="cls-2" cx="53.2" cy="26.61" r="3.31"/><circle class="cls-2" cx="53.2" cy="38.26" r="3.31"/><circle class="cls-2" cx="53.2" cy="49.91" r="3.31"/><circle class="cls-2" cx="53.2" cy="61.55" r="3.31"/><circle class="cls-2" cx="53.2" cy="73.2" r="3.31"/><circle class="cls-2" cx="53.2" cy="84.85" r="3.31"/><circle class="cls-2" cx="53.2" cy="96.5" r="3.31"/><circle class="cls-2" cx="53.2" cy="108.15" r="3.31"/><circle class="cls-2" cx="53.2" cy="119.8" r="3.31"/><circle class="cls-2" cx="53.2" cy="131.45" r="3.31"/><circle class="cls-2" cx="53.2" cy="143.1" r="3.31"/><circle class="cls-2" cx="53.2" cy="154.75" r="3.31"/><circle class="cls-2" cx="53.2" cy="166.4" r="3.31"/><circle class="cls-2" cx="53.2" cy="178.05" r="3.31"/><circle class="cls-2" cx="53.2" cy="189.7" r="3.31"/><circle class="cls-2" cx="53.2" cy="201.35" r="3.31"/><circle class="cls-2" cx="53.2" cy="213" r="3.31"/><circle class="cls-2" cx="53.2" cy="224.65" r="3.31"/><circle class="cls-2" cx="53.2" cy="236.29" r="3.31"/><circle class="cls-2" cx="53.2" cy="247.94" r="3.31"/><circle class="cls-2" cx="53.2" cy="259.59" r="3.31"/><circle class="cls-2" cx="53.2" cy="271.24" r="3.31"/><circle class="cls-2" cx="53.2" cy="282.89" r="3.31"/><circle class="cls-2" cx="53.2" cy="294.54" r="3.31"/><circle class="cls-2" cx="53.2" cy="306.19" r="3.31"/><circle class="cls-2" cx="53.2" cy="317.84" r="3.31"/><circle class="cls-2" cx="53.2" cy="329.49" r="3.31"/><circle class="cls-2" cx="53.2" cy="341.14" r="3.31"/><circle class="cls-2" cx="53.2" cy="352.79" r="3.31"/><circle class="cls-2" cx="53.2" cy="364.44" r="3.31"/><circle class="cls-2" cx="42.85" cy="3.31" r="3.31"/><circle class="cls-2" cx="42.85" cy="14.96" r="3.31"/><circle class="cls-2" cx="42.85" cy="26.61" r="3.31"/><circle class="cls-2" cx="42.85" cy="38.26" r="3.31"/><circle class="cls-2" cx="42.85" cy="49.91" r="3.31"/><circle class="cls-2" cx="42.85" cy="61.55" r="3.31"/><circle class="cls-2" cx="42.85" cy="73.2" r="3.31"/><circle class="cls-2" cx="42.85" cy="84.85" r="3.31"/><circle class="cls-2" cx="42.85" cy="96.5" r="3.31"/><circle class="cls-2" cx="42.85" cy="108.15" r="3.31"/><circle class="cls-2" cx="42.85" cy="119.8" r="3.31"/><circle class="cls-2" cx="42.85" cy="131.45" r="3.31"/><circle class="cls-2" cx="42.85" cy="143.1" r="3.31"/><circle class="cls-2" cx="42.85" cy="154.75" r="3.31"/><circle class="cls-2" cx="42.85" cy="166.4" r="3.31"/><circle class="cls-2" cx="42.85" cy="178.05" r="3.31"/><circle class="cls-2" cx="42.85" cy="189.7" r="3.31"/><circle class="cls-2" cx="42.85" cy="201.35" r="3.31"/><circle class="cls-2" cx="42.85" cy="213" r="3.31"/><circle class="cls-2" cx="42.85" cy="224.65" r="3.31"/><circle class="cls-2" cx="42.85" cy="236.29" r="3.31"/><circle class="cls-2" cx="42.85" cy="247.94" r="3.31"/><circle class="cls-2" cx="42.85" cy="259.59" r="3.31"/><circle class="cls-2" cx="42.85" cy="271.24" r="3.31"/><circle class="cls-2" cx="42.85" cy="282.89" r="3.31"/><circle class="cls-2" cx="42.85" cy="294.54" r="3.31"/><circle class="cls-2" cx="42.85" cy="306.19" r="3.31"/><circle class="cls-2" cx="42.85" cy="317.84" r="3.31"/><circle class="cls-2" cx="42.85" cy="329.49" r="3.31"/><circle class="cls-2" cx="42.85" cy="341.14" r="3.31"/><circle class="cls-2" cx="42.85" cy="352.79" r="3.31"/><circle class="cls-2" cx="42.85" cy="364.44" r="3.31"/></g></g></svg>