<svg xmlns="http://www.w3.org/2000/svg" viewBox="0 0 266.01 374.57"><defs><style>.cls-1{fill:#469fa6;}</style></defs><title>Asset 28</title><g id="Layer_2" data-name="Layer 2"><g id="Layer_1-2" data-name="Layer 1"><circle class="cls-1" cx="7.3" cy="367.27" r="7.3"/><circle class="cls-1" cx="7.3" cy="341.56" r="7.3"/><circle class="cls-1" cx="7.3" cy="315.85" r="7.3"/><circle class="cls-1" cx="7.3" cy="290.14" r="7.3"/><circle class="cls-1" cx="7.3" cy="264.42" r="7.3"/><circle class="cls-1" cx="7.3" cy="238.71" r="7.3"/><circle class="cls-1" cx="7.3" cy="213" r="7.3"/><circle class="cls-1" cx="7.3" cy="187.29" r="7.3"/><circle class="cls-1" cx="7.3" cy="161.58" r="7.3"/><circle class="cls-1" cx="7.3" cy="135.86" r="7.3"/><circle class="cls-1" cx="7.3" cy="110.15" r="7.3"/><circle class="cls-1" cx="7.3" cy="84.44" r="7.3"/><circle class="cls-1" cx="7.3" cy="58.73" r="7.3"/><circle class="cls-1" cx="7.3" cy="33.01" r="7.3"/><circle class="cls-1" cx="7.3" cy="7.3" r="7.3"/><circle class="cls-1" cx="30.16" cy="367.27" r="7.3"/><circle class="cls-1" cx="30.16" cy="341.56" r="7.3"/><circle class="cls-1" cx="30.16" cy="315.85" r="7.3"/><circle class="cls-1" cx="30.16" cy="290.14" r="7.3"/><circle class="cls-1" cx="30.16" cy="264.42" r="7.3"/><circle class="cls-1" cx="30.16" cy="238.71" r="7.3"/><circle class="cls-1" cx="30.16" cy="213" r="7.3"/><circle class="cls-1" cx="30.16" cy="187.29" r="7.3"/><circle class="cls-1" cx="30.16" cy="161.58" r="7.3"/><circle class="cls-1" cx="30.16" cy="135.86" r="7.3"/><circle class="cls-1" cx="30.16" cy="110.15" r="7.3"/><circle class="cls-1" cx="30.16" cy="84.44" r="7.3"/><circle class="cls-1" cx="30.16" cy="58.73" r="7.3"/><circle class="cls-1" cx="30.16" cy="33.01" r="7.3"/><circle class="cls-1" cx="30.16" cy="7.3" r="7.3"/><circle class="cls-1" cx="53.01" cy="367.27" r="7.3"/><circle class="cls-1" cx="53.01" cy="341.56" r="7.3"/><circle class="cls-1" cx="53.01" cy="315.85" r="7.3"/><circle class="cls-1" cx="53.01" cy="290.14" r="7.3"/><circle class="cls-1" cx="53.01" cy="264.42" r="7.3"/><circle class="cls-1" cx="53.01" cy="238.71" r="7.3"/><circle class="cls-1" cx="53.01" cy="213" r="7.3"/><circle class="cls-1" cx="53.01" cy="187.29" r="7.3"/><circle class="cls-1" cx="53.01" cy="161.58" r="7.3"/><circle class="cls-1" cx="53.01" cy="135.86" r="7.3"/><circle class="cls-1" cx="53.01" cy="110.15" r="7.3"/><circle class="cls-1" cx="53.01" cy="84.44" r="7.3"/><circle class="cls-1" cx="53.01" cy="58.73" r="7.3"/><circle class="cls-1" cx="53.01" cy="33.01" r="7.3"/><circle class="cls-1" cx="53.01" cy="7.3" r="7.3"/><circle class="cls-1" cx="75.87" cy="367.27" r="7.3"/><circle class="cls-1" cx="75.87" cy="341.56" r="7.3"/><circle class="cls-1" cx="75.87" cy="315.85" r="7.3"/><circle class="cls-1" cx="75.87" cy="290.14" r="7.3"/><circle class="cls-1" cx="75.87" cy="264.42" r="7.3"/><circle class="cls-1" cx="75.87" cy="238.71" r="7.3"/><circle class="cls-1" cx="75.87" cy="213" r="7.3"/><circle class="cls-1" cx="75.87" cy="187.29" r="7.3"/><circle class="cls-1" cx="75.87" cy="161.58" r="7.3"/><circle class="cls-1" cx="75.87" cy="135.86" r="7.3"/><circle class="cls-1" cx="75.87" cy="110.15" r="7.3"/><circle class="cls-1" cx="75.87" cy="84.44" r="7.3"/><circle class="cls-1" cx="75.87" cy="58.73" r="7.3"/><circle class="cls-1" cx="75.87" cy="33.01" r="7.3"/><circle class="cls-1" cx="75.87" cy="7.3" r="7.3"/><circle class="cls-1" cx="98.72" cy="367.27" r="7.3"/><circle class="cls-1" cx="98.72" cy="341.56" r="7.3"/><circle class="cls-1" cx="98.72" cy="315.85" r="7.3"/><circle class="cls-1" cx="98.72" cy="290.14" r="7.3"/><circle class="cls-1" cx="98.72" cy="264.42" r="7.3"/><circle class="cls-1" cx="98.72" cy="238.71" r="7.3"/><circle class="cls-1" cx="98.72" cy="213" r="7.3"/><circle class="cls-1" cx="98.72" cy="187.29" r="7.3"/><circle class="cls-1" cx="98.72" cy="161.58" r="7.3"/><circle class="cls-1" cx="98.72" cy="135.86" r="7.3"/><circle class="cls-1" cx="98.72" cy="110.15" r="7.3"/><circle class="cls-1" cx="98.72" cy="84.44" r="7.3"/><circle class="cls-1" cx="98.72" cy="58.73" r="7.3"/><circle class="cls-1" cx="98.72" cy="33.01" r="7.3"/><circle class="cls-1" cx="98.72" cy="7.3" r="7.3"/><circle class="cls-1" cx="121.58" cy="367.27" r="7.3"/><circle class="cls-1" cx="121.58" cy="341.56" r="7.3"/><circle class="cls-1" cx="121.58" cy="315.85" r="7.3"/><circle class="cls-1" cx="121.58" cy="290.14" r="7.3"/><circle class="cls-1" cx="121.58" cy="264.42" r="7.3"/><circle class="cls-1" cx="121.58" cy="238.71" r="7.3"/><circle class="cls-1" cx="121.58" cy="213" r="7.3"/><circle class="cls-1" cx="121.58" cy="187.29" r="7.3"/><circle class="cls-1" cx="121.58" cy="161.58" r="7.3"/><circle class="cls-1" cx="121.58" cy="135.86" r="7.3"/><circle class="cls-1" cx="121.58" cy="110.15" r="7.3"/><circle class="cls-1" cx="121.58" cy="84.44" r="7.3"/><circle class="cls-1" cx="121.58" cy="58.73" r="7.3"/><circle class="cls-1" cx="121.58" cy="33.01" r="7.3"/><circle class="cls-1" cx="121.58" cy="7.3" r="7.3"/><circle class="cls-1" cx="144.43" cy="367.27" r="7.3"/><circle class="cls-1" cx="144.43" cy="341.56" r="7.3"/><circle class="cls-1" cx="144.43" cy="315.85" r="7.3"/><circle class="cls-1" cx="144.43" cy="290.14" r="7.3"/><circle class="cls-1" cx="144.43" cy="264.42" r="7.3"/><circle class="cls-1" cx="144.43" cy="238.71" r="7.3"/><circle class="cls-1" cx="144.43" cy="213" r="7.3"/><circle class="cls-1" cx="144.43" cy="187.29" r="7.3"/><circle class="cls-1" cx="144.43" cy="161.58" r="7.3"/><circle class="cls-1" cx="144.43" cy="135.86" r="7.3"/><circle class="cls-1" cx="144.43" cy="110.15" r="7.3"/><circle class="cls-1" cx="144.43" cy="84.44" r="7.3"/><circle class="cls-1" cx="144.43" cy="58.73" r="7.3"/><circle class="cls-1" cx="144.43" cy="33.01" r="7.3"/><circle class="cls-1" cx="144.43" cy="7.3" r="7.3"/><circle class="cls-1" cx="167.29" cy="367.27" r="7.3"/><circle class="cls-1" cx="167.29" cy="341.56" r="7.3"/><circle class="cls-1" cx="167.29" cy="315.85" r="7.3"/><circle class="cls-1" cx="167.29" cy="290.14" r="7.3"/><circle class="cls-1" cx="167.29" cy="264.42" r="7.3"/><circle class="cls-1" cx="167.29" cy="238.71" r="7.3"/><circle class="cls-1" cx="167.29" cy="213" r="7.3"/><circle class="cls-1" cx="167.29" cy="187.29" r="7.3"/><circle class="cls-1" cx="167.29" cy="161.58" r="7.3"/><circle class="cls-1" cx="167.29" cy="135.86" r="7.3"/><circle class="cls-1" cx="167.29" cy="110.15" r="7.3"/><circle class="cls-1" cx="167.29" cy="84.44" r="7.3"/><circle class="cls-1" cx="167.29" cy="58.73" r="7.3"/><circle class="cls-1" cx="167.29" cy="33.01" r="7.3"/><circle class="cls-1" cx="167.29" cy="7.3" r="7.3"/><circle class="cls-1" cx="190.14" cy="367.27" r="7.3"/><circle class="cls-1" cx="190.14" cy="341.56" r="7.3"/><circle class="cls-1" cx="190.14" cy="315.85" r="7.3"/><circle class="cls-1" cx="190.14" cy="290.14" r="7.3"/><circle class="cls-1" cx="190.14" cy="264.42" r="7.3"/><circle class="cls-1" cx="190.14" cy="238.71" r="7.3"/><circle class="cls-1" cx="190.14" cy="213" r="7.3"/><circle class="cls-1" cx="190.14" cy="187.29" r="7.3"/><circle class="cls-1" cx="190.14" cy="161.58" r="7.3"/><circle class="cls-1" cx="190.14" cy="135.86" r="7.3"/><circle class="cls-1" cx="190.14" cy="110.15" r="7.3"/><circle class="cls-1" cx="190.14" cy="84.44" r="7.3"/><circle class="cls-1" cx="190.14" cy="58.73" r="7.3"/><circle class="cls-1" cx="190.14" cy="33.01" r="7.3"/><circle class="cls-1" cx="190.14" cy="7.3" r="7.3"/><circle class="cls-1" cx="213" cy="367.27" r="7.3"/><circle class="cls-1" cx="213" cy="341.56" r="7.3"/><circle class="cls-1" cx="213" cy="315.85" r="7.3"/><circle class="cls-1" cx="213" cy="290.14" r="7.3"/><circle class="cls-1" cx="213" cy="264.42" r="7.3"/><circle class="cls-1" cx="213" cy="238.71" r="7.3"/><circle class="cls-1" cx="213" cy="213" r="7.3"/><circle class="cls-1" cx="213" cy="187.29" r="7.3"/><circle class="cls-1" cx="213" cy="161.58" r="7.3"/><circle class="cls-1" cx="213" cy="135.86" r="7.3"/><circle class="cls-1" cx="213" cy="110.15" r="7.3"/><circle class="cls-1" cx="213" cy="84.44" r="7.3"/><circle class="cls-1" cx="213" cy="58.73" r="7.3"/><circle class="cls-1" cx="213" cy="33.01" r="7.3"/><circle class="cls-1" cx="213" cy="7.3" r="7.3"/><circle class="cls-1" cx="235.86" cy="367.27" r="7.3"/><circle class="cls-1" cx="235.86" cy="341.56" r="7.3"/><circle class="cls-1" cx="235.86" cy="315.85" r="7.3"/><circle class="cls-1" cx="235.86" cy="290.14" r="7.3"/><circle class="cls-1" cx="235.86" cy="264.42" r="7.3"/><circle class="cls-1" cx="235.86" cy="238.71" r="7.3"/><circle class="cls-1" cx="235.86" cy="213" r="7.3"/><circle class="cls-1" cx="235.86" cy="187.29" r="7.3"/><circle class="cls-1" cx="235.86" cy="161.58" r="7.3"/><circle class="cls-1" cx="235.86" cy="135.86" r="7.3"/><circle class="cls-1" cx="235.86" cy="110.15" r="7.3"/><circle class="cls-1" cx="235.86" cy="84.44" r="7.3"/><circle class="cls-1" cx="235.86" cy="58.73" r="7.3"/><circle class="cls-1" cx="235.86" cy="33.01" r="7.3"/><circle class="cls-1" cx="235.86" cy="7.3" r="7.3"/><circle class="cls-1" cx="258.71" cy="367.27" r="7.3"/><circle class="cls-1" cx="258.71" cy="341.56" r="7.3"/><circle class="cls-1" cx="258.71" cy="315.85" r="7.3"/><circle class="cls-1" cx="258.71" cy="290.14" r="7.3"/><circle class="cls-1" cx="258.71" cy="264.42" r="7.3"/><circle class="cls-1" cx="258.71" cy="238.71" r="7.3"/><circle class="cls-1" cx="258.71" cy="213" r="7.3"/><circle class="cls-1" cx="258.71" cy="187.29" r="7.3"/><circle class="cls-1" cx="258.71" cy="161.58" r="7.3"/><circle class="cls-1" cx="258.71" cy="135.86" r="7.3"/><circle class="cls-1" cx="258.71" cy="110.15" r="7.3"/><circle class="cls-1" cx="258.71" cy="84.44" r="7.3"/><circle class="cls-1" cx="258.71" cy="58.73" r="7.3"/><circle class="cls-1" cx="258.71" cy="33.01" r="7.3"/><circle class="cls-1" cx="258.71" cy="7.3" r="7.3"/></g></g></svg>