<svg xmlns="http://www.w3.org/2000/svg" viewBox="0 0 251.34 295.46"><defs><style>.cls-1{isolation:isolate;}.cls-2{mix-blend-mode:multiply;}.cls-3{fill:#46a0a5;}.cls-4{fill:#e56251;}</style></defs><title>Asset 19</title><g class="cls-1"><g id="Layer_2" data-name="Layer 2"><g id="Layer_1-2" data-name="Layer 1"><g class="cls-2"><polygon class="cls-3" points="72.06 190.13 72.06 295.46 93.6 295.46 93.6 161.59 74.66 161.59 31.33 206.22 44.3 219.45 72.06 190.13"/><path class="cls-3" d="M127.32,290.79a45.1,45.1,0,0,0,.25,4.67h22.24a25.65,25.65,0,0,1-1-7c0-22.57,29.84-32.17,40.47-33.47,10.64,1.3,40.21,10.9,40.21,33.47a25.68,25.68,0,0,1-1,7h22.49a44,44,0,0,0,.26-4.67c0-23.09-19.72-38.92-41.25-45.4,20-5.71,38.66-18.68,38.66-41.51,0-31.13-30.87-44.88-59.41-44.88-28.8,0-59.15,13.75-59.15,44.88,0,22.83,18.42,35.8,38.4,41.51C147,251.88,127.32,267.7,127.32,290.79Zm24.39-84.06c0-17.9,16.6-28.54,37.62-28.54,20.76,0,37.62,10.64,37.62,28.54,0,21-27,28-37.62,29.84C179,234.75,151.71,227.75,151.71,206.73Z"/></g><circle class="cls-4" cx="132.88" cy="2.32" r="2.32"/><circle class="cls-4" cx="132.88" cy="10.48" r="2.32"/><circle class="cls-4" cx="132.88" cy="18.64" r="2.32"/><circle class="cls-4" cx="132.88" cy="26.8" r="2.32"/><circle class="cls-4" cx="132.88" cy="34.96" r="2.32"/><circle class="cls-4" cx="132.88" cy="43.12" r="2.32"/><circle class="cls-4" cx="132.88" cy="51.28" r="2.32"/><circle class="cls-4" cx="132.88" cy="59.44" r="2.32"/><circle class="cls-4" cx="132.88" cy="67.6" r="2.32"/><circle class="cls-4" cx="132.88" cy="75.76" r="2.32"/><circle class="cls-4" cx="132.88" cy="83.92" r="2.32"/><circle class="cls-4" cx="132.88" cy="92.08" r="2.32"/><circle class="cls-4" cx="132.88" cy="100.24" r="2.32"/><circle class="cls-4" cx="132.88" cy="108.4" r="2.32"/><circle class="cls-4" cx="132.88" cy="116.56" r="2.32"/><circle class="cls-4" cx="132.88" cy="124.72" r="2.32"/><circle class="cls-4" cx="132.88" cy="132.88" r="2.32"/><circle class="cls-4" cx="132.88" cy="141.04" r="2.32"/><circle class="cls-4" cx="132.88" cy="149.2" r="2.32"/><circle class="cls-4" cx="132.88" cy="157.36" r="2.32"/><circle class="cls-4" cx="132.88" cy="165.52" r="2.32"/><circle class="cls-4" cx="132.88" cy="173.68" r="2.32"/><circle class="cls-4" cx="132.88" cy="181.84" r="2.32"/><circle class="cls-4" cx="132.88" cy="190" r="2.32"/><circle class="cls-4" cx="132.88" cy="198.16" r="2.32"/><circle class="cls-4" cx="132.88" cy="206.32" r="2.32"/><circle class="cls-4" cx="132.88" cy="214.48" r="2.32"/><circle class="cls-4" cx="132.88" cy="222.64" r="2.32"/><circle class="cls-4" cx="132.88" cy="230.8" r="2.32"/><circle class="cls-4" cx="132.88" cy="238.96" r="2.32"/><circle class="cls-4" cx="132.88" cy="247.12" r="2.32"/><circle class="cls-4" cx="132.88" cy="255.28" r="2.32"/><circle class="cls-4" cx="125.63" cy="2.32" r="2.32"/><circle class="cls-4" cx="125.63" cy="10.48" r="2.32"/><circle class="cls-4" cx="125.63" cy="18.64" r="2.32"/><circle class="cls-4" cx="125.63" cy="26.8" r="2.32"/><circle class="cls-4" cx="125.63" cy="34.96" r="2.32"/><circle class="cls-4" cx="125.63" cy="43.12" r="2.32"/><circle class="cls-4" cx="125.63" cy="51.28" r="2.32"/><circle class="cls-4" cx="125.63" cy="59.44" r="2.32"/><circle class="cls-4" cx="125.63" cy="67.6" r="2.32"/><circle class="cls-4" cx="125.63" cy="75.76" r="2.32"/><circle class="cls-4" cx="125.63" cy="83.92" r="2.32"/><circle class="cls-4" cx="125.63" cy="92.08" r="2.32"/><circle class="cls-4" cx="125.63" cy="100.24" r="2.32"/><circle class="cls-4" cx="125.63" cy="108.4" r="2.32"/><circle class="cls-4" cx="125.63" cy="116.56" r="2.32"/><circle class="cls-4" cx="125.63" cy="124.72" r="2.32"/><circle class="cls-4" cx="125.63" cy="132.88" r="2.32"/><circle class="cls-4" cx="125.63" cy="141.04" r="2.32"/><circle class="cls-4" cx="125.63" cy="149.2" r="2.32"/><circle class="cls-4" cx="125.63" cy="157.36" r="2.32"/><circle class="cls-4" cx="125.63" cy="165.52" r="2.32"/><circle class="cls-4" cx="125.63" cy="173.68" r="2.32"/><circle class="cls-4" cx="125.63" cy="181.84" r="2.32"/><circle class="cls-4" cx="125.63" cy="190" r="2.32"/><circle class="cls-4" cx="125.63" cy="198.16" r="2.32"/><circle class="cls-4" cx="125.63" cy="206.32" r="2.32"/><circle class="cls-4" cx="125.63" cy="214.48" r="2.32"/><circle class="cls-4" cx="125.63" cy="222.64" r="2.32"/><circle class="cls-4" cx="125.63" cy="230.8" r="2.32"/><circle class="cls-4" cx="125.63" cy="238.96" r="2.32"/><circle class="cls-4" cx="125.63" cy="247.12" r="2.32"/><circle class="cls-4" cx="125.63" cy="255.28" r="2.32"/><circle class="cls-4" cx="118.37" cy="2.32" r="2.32"/><circle class="cls-4" cx="118.37" cy="10.48" r="2.32"/><circle class="cls-4" cx="118.37" cy="18.64" r="2.32"/><circle class="cls-4" cx="118.37" cy="26.8" r="2.32"/><circle class="cls-4" cx="118.37" cy="34.96" r="2.32"/><circle class="cls-4" cx="118.37" cy="43.12" r="2.32"/><circle class="cls-4" cx="118.37" cy="51.28" r="2.32"/><circle class="cls-4" cx="118.37" cy="59.44" r="2.32"/><circle class="cls-4" cx="118.37" cy="67.6" r="2.32"/><circle class="cls-4" cx="118.37" cy="75.76" r="2.32"/><circle class="cls-4" cx="118.37" cy="83.92" r="2.32"/><circle class="cls-4" cx="118.37" cy="92.08" r="2.32"/><circle class="cls-4" cx="118.37" cy="100.24" r="2.32"/><circle class="cls-4" cx="118.37" cy="108.4" r="2.32"/><circle class="cls-4" cx="118.37" cy="116.56" r="2.32"/><circle class="cls-4" cx="118.37" cy="124.72" r="2.32"/><circle class="cls-4" cx="118.37" cy="132.88" r="2.32"/><circle class="cls-4" cx="118.37" cy="141.04" r="2.32"/><circle class="cls-4" cx="118.37" cy="149.2" r="2.32"/><circle class="cls-4" cx="118.37" cy="157.36" r="2.32"/><circle class="cls-4" cx="118.37" cy="165.52" r="2.32"/><circle class="cls-4" cx="118.37" cy="173.68" r="2.32"/><circle class="cls-4" cx="118.37" cy="181.84" r="2.32"/><circle class="cls-4" cx="118.37" cy="190" r="2.32"/><circle class="cls-4" cx="118.37" cy="198.16" r="2.32"/><circle class="cls-4" cx="118.37" cy="206.32" r="2.32"/><circle class="cls-4" cx="118.37" cy="214.48" r="2.32"/><circle class="cls-4" cx="118.37" cy="222.64" r="2.32"/><circle class="cls-4" cx="118.37" cy="230.8" r="2.32"/><circle class="cls-4" cx="118.37" cy="238.96" r="2.32"/><circle class="cls-4" cx="118.37" cy="247.12" r="2.32"/><circle class="cls-4" cx="118.37" cy="255.28" r="2.32"/><circle class="cls-4" cx="111.12" cy="2.32" r="2.32"/><circle class="cls-4" cx="111.12" cy="10.48" r="2.32"/><circle class="cls-4" cx="111.12" cy="18.64" r="2.32"/><circle class="cls-4" cx="111.12" cy="26.8" r="2.32"/><circle class="cls-4" cx="111.12" cy="34.96" r="2.32"/><circle class="cls-4" cx="111.12" cy="43.12" r="2.32"/><circle class="cls-4" cx="111.12" cy="51.28" r="2.32"/><circle class="cls-4" cx="111.12" cy="59.44" r="2.32"/><circle class="cls-4" cx="111.12" cy="67.6" r="2.32"/><circle class="cls-4" cx="111.12" cy="75.76" r="2.32"/><circle class="cls-4" cx="111.12" cy="83.92" r="2.32"/><circle class="cls-4" cx="111.12" cy="92.08" r="2.32"/><circle class="cls-4" cx="111.12" cy="100.24" r="2.32"/><circle class="cls-4" cx="111.12" cy="108.4" r="2.32"/><circle class="cls-4" cx="111.12" cy="116.56" r="2.32"/><circle class="cls-4" cx="111.12" cy="124.72" r="2.32"/><circle class="cls-4" cx="111.12" cy="132.88" r="2.32"/><circle class="cls-4" cx="111.12" cy="141.04" r="2.32"/><circle class="cls-4" cx="111.12" cy="149.2" r="2.32"/><circle class="cls-4" cx="111.12" cy="157.36" r="2.32"/><circle class="cls-4" cx="111.12" cy="165.52" r="2.32"/><circle class="cls-4" cx="111.12" cy="173.68" r="2.32"/><circle class="cls-4" cx="111.12" cy="181.84" r="2.32"/><circle class="cls-4" cx="111.12" cy="190" r="2.32"/><circle class="cls-4" cx="111.12" cy="198.16" r="2.32"/><circle class="cls-4" cx="111.12" cy="206.32" r="2.32"/><circle class="cls-4" cx="111.12" cy="214.48" r="2.32"/><circle class="cls-4" cx="111.12" cy="222.64" r="2.32"/><circle class="cls-4" cx="111.12" cy="230.8" r="2.32"/><circle class="cls-4" cx="111.12" cy="238.96" r="2.32"/><circle class="cls-4" cx="111.12" cy="247.12" r="2.32"/><circle class="cls-4" cx="111.12" cy="255.28" r="2.32"/><circle class="cls-4" cx="103.87" cy="2.32" r="2.32"/><circle class="cls-4" cx="103.87" cy="10.48" r="2.32"/><circle class="cls-4" cx="103.87" cy="18.64" r="2.32"/><circle class="cls-4" cx="103.87" cy="26.8" r="2.32"/><circle class="cls-4" cx="103.87" cy="34.96" r="2.32"/><circle class="cls-4" cx="103.87" cy="43.12" r="2.32"/><circle class="cls-4" cx="103.87" cy="51.28" r="2.32"/><circle class="cls-4" cx="103.87" cy="59.44" r="2.32"/><circle class="cls-4" cx="103.87" cy="67.6" r="2.32"/><circle class="cls-4" cx="103.87" cy="75.76" r="2.32"/><circle class="cls-4" cx="103.87" cy="83.92" r="2.32"/><circle class="cls-4" cx="103.87" cy="92.08" r="2.32"/><circle class="cls-4" cx="103.87" cy="100.24" r="2.32"/><circle class="cls-4" cx="103.87" cy="108.4" r="2.32"/><circle class="cls-4" cx="103.87" cy="116.56" r="2.32"/><circle class="cls-4" cx="103.87" cy="124.72" r="2.32"/><circle class="cls-4" cx="103.87" cy="132.88" r="2.32"/><circle class="cls-4" cx="103.87" cy="141.04" r="2.32"/><circle class="cls-4" cx="103.87" cy="149.2" r="2.32"/><circle class="cls-4" cx="103.87" cy="157.36" r="2.32"/><circle class="cls-4" cx="103.87" cy="165.52" r="2.32"/><circle class="cls-4" cx="103.87" cy="173.68" r="2.32"/><circle class="cls-4" cx="103.87" cy="181.84" r="2.32"/><circle class="cls-4" cx="103.87" cy="190" r="2.32"/><circle class="cls-4" cx="103.87" cy="198.16" r="2.32"/><circle class="cls-4" cx="103.87" cy="206.32" r="2.32"/><circle class="cls-4" cx="103.87" cy="214.48" r="2.32"/><circle class="cls-4" cx="103.87" cy="222.64" r="2.32"/><circle class="cls-4" cx="103.87" cy="230.8" r="2.32"/><circle class="cls-4" cx="103.87" cy="238.96" r="2.32"/><circle class="cls-4" cx="103.87" cy="247.12" r="2.32"/><circle class="cls-4" cx="103.87" cy="255.28" r="2.32"/><circle class="cls-4" cx="96.61" cy="2.32" r="2.32"/><circle class="cls-4" cx="96.61" cy="10.48" r="2.32"/><circle class="cls-4" cx="96.61" cy="18.64" r="2.32"/><circle class="cls-4" cx="96.61" cy="26.8" r="2.32"/><circle class="cls-4" cx="96.61" cy="34.96" r="2.32"/><circle class="cls-4" cx="96.61" cy="43.12" r="2.32"/><circle class="cls-4" cx="96.61" cy="51.28" r="2.32"/><circle class="cls-4" cx="96.61" cy="59.44" r="2.32"/><circle class="cls-4" cx="96.61" cy="67.6" r="2.32"/><circle class="cls-4" cx="96.61" cy="75.76" r="2.32"/><circle class="cls-4" cx="96.61" cy="83.92" r="2.32"/><circle class="cls-4" cx="96.61" cy="92.08" r="2.32"/><circle class="cls-4" cx="96.61" cy="100.24" r="2.32"/><circle class="cls-4" cx="96.61" cy="108.4" r="2.32"/><circle class="cls-4" cx="96.61" cy="116.56" r="2.32"/><circle class="cls-4" cx="96.61" cy="124.72" r="2.32"/><circle class="cls-4" cx="96.61" cy="132.88" r="2.32"/><circle class="cls-4" cx="96.61" cy="141.04" r="2.32"/><circle class="cls-4" cx="96.61" cy="149.2" r="2.32"/><circle class="cls-4" cx="96.61" cy="157.36" r="2.32"/><circle class="cls-4" cx="96.61" cy="165.52" r="2.32"/><circle class="cls-4" cx="96.61" cy="173.68" r="2.32"/><circle class="cls-4" cx="96.61" cy="181.84" r="2.32"/><circle class="cls-4" cx="96.61" cy="190" r="2.32"/><circle class="cls-4" cx="96.61" cy="198.16" r="2.32"/><circle class="cls-4" cx="96.61" cy="206.32" r="2.32"/><circle class="cls-4" cx="96.61" cy="214.48" r="2.32"/><circle class="cls-4" cx="96.61" cy="222.64" r="2.32"/><circle class="cls-4" cx="96.61" cy="230.8" r="2.32"/><circle class="cls-4" cx="96.61" cy="238.96" r="2.32"/><circle class="cls-4" cx="96.61" cy="247.12" r="2.32"/><circle class="cls-4" cx="96.61" cy="255.28" r="2.32"/><circle class="cls-4" cx="89.36" cy="2.32" r="2.32"/><circle class="cls-4" cx="89.36" cy="10.48" r="2.32"/><circle class="cls-4" cx="89.36" cy="18.64" r="2.32"/><circle class="cls-4" cx="89.36" cy="26.8" r="2.32"/><circle class="cls-4" cx="89.36" cy="34.96" r="2.32"/><circle class="cls-4" cx="89.36" cy="43.12" r="2.32"/><circle class="cls-4" cx="89.36" cy="51.28" r="2.32"/><circle class="cls-4" cx="89.36" cy="59.44" r="2.32"/><circle class="cls-4" cx="89.36" cy="67.6" r="2.32"/><circle class="cls-4" cx="89.36" cy="75.76" r="2.32"/><circle class="cls-4" cx="89.36" cy="83.92" r="2.32"/><circle class="cls-4" cx="89.36" cy="92.08" r="2.32"/><circle class="cls-4" cx="89.36" cy="100.24" r="2.32"/><circle class="cls-4" cx="89.36" cy="108.4" r="2.32"/><circle class="cls-4" cx="89.36" cy="116.56" r="2.32"/><circle class="cls-4" cx="89.36" cy="124.72" r="2.32"/><circle class="cls-4" cx="89.36" cy="132.88" r="2.32"/><circle class="cls-4" cx="89.36" cy="141.04" r="2.32"/><circle class="cls-4" cx="89.36" cy="149.2" r="2.32"/><circle class="cls-4" cx="89.36" cy="157.36" r="2.32"/><circle class="cls-4" cx="89.36" cy="165.52" r="2.32"/><circle class="cls-4" cx="89.36" cy="173.68" r="2.32"/><circle class="cls-4" cx="89.36" cy="181.84" r="2.32"/><circle class="cls-4" cx="89.36" cy="190" r="2.32"/><circle class="cls-4" cx="89.36" cy="198.16" r="2.32"/><circle class="cls-4" cx="89.36" cy="206.32" r="2.32"/><circle class="cls-4" cx="89.36" cy="214.48" r="2.32"/><circle class="cls-4" cx="89.36" cy="222.64" r="2.32"/><circle class="cls-4" cx="89.36" cy="230.8" r="2.32"/><circle class="cls-4" cx="89.36" cy="238.96" r="2.32"/><circle class="cls-4" cx="89.36" cy="247.12" r="2.32"/><circle class="cls-4" cx="89.36" cy="255.28" r="2.32"/><circle class="cls-4" cx="82.11" cy="2.32" r="2.32"/><circle class="cls-4" cx="82.11" cy="10.48" r="2.32"/><circle class="cls-4" cx="82.11" cy="18.64" r="2.32"/><circle class="cls-4" cx="82.11" cy="26.8" r="2.32"/><circle class="cls-4" cx="82.11" cy="34.96" r="2.32"/><circle class="cls-4" cx="82.11" cy="43.12" r="2.32"/><circle class="cls-4" cx="82.11" cy="51.28" r="2.32"/><circle class="cls-4" cx="82.11" cy="59.44" r="2.32"/><circle class="cls-4" cx="82.11" cy="67.6" r="2.32"/><circle class="cls-4" cx="82.11" cy="75.76" r="2.32"/><circle class="cls-4" cx="82.11" cy="83.92" r="2.32"/><circle class="cls-4" cx="82.11" cy="92.08" r="2.32"/><circle class="cls-4" cx="82.11" cy="100.24" r="2.32"/><circle class="cls-4" cx="82.11" cy="108.4" r="2.32"/><circle class="cls-4" cx="82.11" cy="116.56" r="2.32"/><circle class="cls-4" cx="82.11" cy="124.72" r="2.32"/><circle class="cls-4" cx="82.11" cy="132.88" r="2.32"/><circle class="cls-4" cx="82.11" cy="141.04" r="2.32"/><circle class="cls-4" cx="82.11" cy="149.2" r="2.32"/><circle class="cls-4" cx="82.11" cy="157.36" r="2.32"/><circle class="cls-4" cx="82.11" cy="165.52" r="2.32"/><circle class="cls-4" cx="82.11" cy="173.68" r="2.32"/><circle class="cls-4" cx="82.11" cy="181.84" r="2.32"/><circle class="cls-4" cx="82.11" cy="190" r="2.32"/><circle class="cls-4" cx="82.11" cy="198.16" r="2.32"/><circle class="cls-4" cx="82.11" cy="206.32" r="2.32"/><circle class="cls-4" cx="82.11" cy="214.48" r="2.32"/><circle class="cls-4" cx="82.11" cy="222.64" r="2.32"/><circle class="cls-4" cx="82.11" cy="230.8" r="2.32"/><circle class="cls-4" cx="82.11" cy="238.96" r="2.32"/><circle class="cls-4" cx="82.11" cy="247.12" r="2.32"/><circle class="cls-4" cx="82.11" cy="255.28" r="2.32"/><circle class="cls-4" cx="74.85" cy="2.32" r="2.32"/><circle class="cls-4" cx="74.85" cy="10.48" r="2.32"/><circle class="cls-4" cx="74.85" cy="18.64" r="2.32"/><circle class="cls-4" cx="74.85" cy="26.8" r="2.32"/><circle class="cls-4" cx="74.85" cy="34.96" r="2.32"/><circle class="cls-4" cx="74.85" cy="43.12" r="2.32"/><circle class="cls-4" cx="74.85" cy="51.28" r="2.32"/><circle class="cls-4" cx="74.85" cy="59.44" r="2.32"/><circle class="cls-4" cx="74.85" cy="67.6" r="2.32"/><circle class="cls-4" cx="74.85" cy="75.76" r="2.32"/><circle class="cls-4" cx="74.85" cy="83.92" r="2.32"/><circle class="cls-4" cx="74.85" cy="92.08" r="2.32"/><circle class="cls-4" cx="74.85" cy="100.24" r="2.32"/><circle class="cls-4" cx="74.85" cy="108.4" r="2.32"/><circle class="cls-4" cx="74.85" cy="116.56" r="2.32"/><circle class="cls-4" cx="74.85" cy="124.72" r="2.32"/><circle class="cls-4" cx="74.85" cy="132.88" r="2.32"/><circle class="cls-4" cx="74.85" cy="141.04" r="2.32"/><circle class="cls-4" cx="74.85" cy="149.2" r="2.32"/><circle class="cls-4" cx="74.85" cy="157.36" r="2.32"/><circle class="cls-4" cx="74.85" cy="165.52" r="2.32"/><circle class="cls-4" cx="74.85" cy="173.68" r="2.32"/><circle class="cls-4" cx="74.85" cy="181.84" r="2.32"/><circle class="cls-4" cx="74.85" cy="190" r="2.32"/><circle class="cls-4" cx="74.85" cy="198.16" r="2.32"/><circle class="cls-4" cx="74.85" cy="206.32" r="2.32"/><circle class="cls-4" cx="74.85" cy="214.48" r="2.32"/><circle class="cls-4" cx="74.85" cy="222.64" r="2.32"/><circle class="cls-4" cx="74.85" cy="230.8" r="2.32"/><circle class="cls-4" cx="74.85" cy="238.96" r="2.32"/><circle class="cls-4" cx="74.85" cy="247.12" r="2.32"/><circle class="cls-4" cx="74.85" cy="255.28" r="2.32"/><circle class="cls-4" cx="67.6" cy="2.32" r="2.32"/><circle class="cls-4" cx="67.6" cy="10.48" r="2.32"/><circle class="cls-4" cx="67.6" cy="18.64" r="2.32"/><circle class="cls-4" cx="67.6" cy="26.8" r="2.32"/><circle class="cls-4" cx="67.6" cy="34.96" r="2.32"/><circle class="cls-4" cx="67.6" cy="43.12" r="2.32"/><circle class="cls-4" cx="67.6" cy="51.28" r="2.32"/><circle class="cls-4" cx="67.6" cy="59.44" r="2.32"/><circle class="cls-4" cx="67.6" cy="67.6" r="2.32"/><circle class="cls-4" cx="67.6" cy="75.76" r="2.32"/><circle class="cls-4" cx="67.6" cy="83.92" r="2.32"/><circle class="cls-4" cx="67.6" cy="92.08" r="2.32"/><circle class="cls-4" cx="67.6" cy="100.24" r="2.32"/><circle class="cls-4" cx="67.6" cy="108.4" r="2.32"/><circle class="cls-4" cx="67.6" cy="116.56" r="2.32"/><circle class="cls-4" cx="67.6" cy="124.72" r="2.32"/><circle class="cls-4" cx="67.6" cy="132.88" r="2.32"/><circle class="cls-4" cx="67.6" cy="141.04" r="2.32"/><circle class="cls-4" cx="67.6" cy="149.2" r="2.32"/><circle class="cls-4" cx="67.6" cy="157.36" r="2.32"/><circle class="cls-4" cx="67.6" cy="165.52" r="2.32"/><circle class="cls-4" cx="67.6" cy="173.68" r="2.32"/><circle class="cls-4" cx="67.6" cy="181.84" r="2.32"/><circle class="cls-4" cx="67.6" cy="190" r="2.32"/><circle class="cls-4" cx="67.6" cy="198.16" r="2.32"/><circle class="cls-4" cx="67.6" cy="206.32" r="2.32"/><circle class="cls-4" cx="67.6" cy="214.48" r="2.32"/><circle class="cls-4" cx="67.6" cy="222.64" r="2.32"/><circle class="cls-4" cx="67.6" cy="230.8" r="2.32"/><circle class="cls-4" cx="67.6" cy="238.96" r="2.32"/><circle class="cls-4" cx="67.6" cy="247.12" r="2.32"/><circle class="cls-4" cx="67.6" cy="255.28" r="2.32"/><circle class="cls-4" cx="60.35" cy="2.32" r="2.32"/><circle class="cls-4" cx="60.35" cy="10.48" r="2.32"/><circle class="cls-4" cx="60.35" cy="18.64" r="2.32"/><circle class="cls-4" cx="60.35" cy="26.8" r="2.32"/><circle class="cls-4" cx="60.35" cy="34.96" r="2.32"/><circle class="cls-4" cx="60.35" cy="43.12" r="2.32"/><circle class="cls-4" cx="60.35" cy="51.28" r="2.32"/><circle class="cls-4" cx="60.35" cy="59.44" r="2.32"/><circle class="cls-4" cx="60.35" cy="67.6" r="2.32"/><circle class="cls-4" cx="60.35" cy="75.76" r="2.32"/><circle class="cls-4" cx="60.35" cy="83.92" r="2.32"/><circle class="cls-4" cx="60.35" cy="92.08" r="2.32"/><circle class="cls-4" cx="60.35" cy="100.24" r="2.32"/><circle class="cls-4" cx="60.35" cy="108.4" r="2.32"/><circle class="cls-4" cx="60.35" cy="116.56" r="2.32"/><circle class="cls-4" cx="60.35" cy="124.72" r="2.32"/><circle class="cls-4" cx="60.35" cy="132.88" r="2.32"/><circle class="cls-4" cx="60.35" cy="141.04" r="2.32"/><circle class="cls-4" cx="60.35" cy="149.2" r="2.32"/><circle class="cls-4" cx="60.35" cy="157.36" r="2.32"/><circle class="cls-4" cx="60.35" cy="165.52" r="2.32"/><circle class="cls-4" cx="60.35" cy="173.68" r="2.32"/><circle class="cls-4" cx="60.35" cy="181.84" r="2.32"/><circle class="cls-4" cx="60.35" cy="190" r="2.32"/><circle class="cls-4" cx="60.35" cy="198.16" r="2.32"/><circle class="cls-4" cx="60.35" cy="206.32" r="2.32"/><circle class="cls-4" cx="60.35" cy="214.48" r="2.32"/><circle class="cls-4" cx="60.35" cy="222.64" r="2.32"/><circle class="cls-4" cx="60.35" cy="230.8" r="2.32"/><circle class="cls-4" cx="60.35" cy="238.96" r="2.32"/><circle class="cls-4" cx="60.35" cy="247.12" r="2.32"/><circle class="cls-4" cx="60.35" cy="255.28" r="2.32"/><circle class="cls-4" cx="53.09" cy="2.32" r="2.32"/><circle class="cls-4" cx="53.09" cy="10.48" r="2.32"/><circle class="cls-4" cx="53.09" cy="18.64" r="2.32"/><circle class="cls-4" cx="53.09" cy="26.8" r="2.32"/><circle class="cls-4" cx="53.09" cy="34.96" r="2.32"/><circle class="cls-4" cx="53.09" cy="43.12" r="2.32"/><circle class="cls-4" cx="53.09" cy="51.28" r="2.32"/><circle class="cls-4" cx="53.09" cy="59.44" r="2.32"/><circle class="cls-4" cx="53.09" cy="67.6" r="2.32"/><circle class="cls-4" cx="53.09" cy="75.76" r="2.32"/><circle class="cls-4" cx="53.09" cy="83.92" r="2.32"/><circle class="cls-4" cx="53.09" cy="92.08" r="2.32"/><circle class="cls-4" cx="53.09" cy="100.24" r="2.32"/><circle class="cls-4" cx="53.09" cy="108.4" r="2.32"/><circle class="cls-4" cx="53.09" cy="116.56" r="2.32"/><circle class="cls-4" cx="53.09" cy="124.72" r="2.32"/><circle class="cls-4" cx="53.09" cy="132.88" r="2.32"/><circle class="cls-4" cx="53.09" cy="141.04" r="2.32"/><circle class="cls-4" cx="53.09" cy="149.2" r="2.32"/><circle class="cls-4" cx="53.09" cy="157.36" r="2.32"/><circle class="cls-4" cx="53.09" cy="165.52" r="2.32"/><circle class="cls-4" cx="53.09" cy="173.68" r="2.32"/><circle class="cls-4" cx="53.09" cy="181.84" r="2.32"/><circle class="cls-4" cx="53.09" cy="190" r="2.32"/><circle class="cls-4" cx="53.09" cy="198.16" r="2.32"/><circle class="cls-4" cx="53.09" cy="206.32" r="2.32"/><circle class="cls-4" cx="53.09" cy="214.48" r="2.32"/><circle class="cls-4" cx="53.09" cy="222.64" r="2.32"/><circle class="cls-4" cx="53.09" cy="230.8" r="2.32"/><circle class="cls-4" cx="53.09" cy="238.96" r="2.32"/><circle class="cls-4" cx="53.09" cy="247.12" r="2.32"/><circle class="cls-4" cx="53.09" cy="255.28" r="2.32"/><circle class="cls-4" cx="45.84" cy="2.32" r="2.32"/><circle class="cls-4" cx="45.84" cy="10.48" r="2.32"/><circle class="cls-4" cx="45.84" cy="18.64" r="2.32"/><circle class="cls-4" cx="45.84" cy="26.8" r="2.32"/><circle class="cls-4" cx="45.84" cy="34.96" r="2.32"/><circle class="cls-4" cx="45.84" cy="43.12" r="2.32"/><circle class="cls-4" cx="45.84" cy="51.28" r="2.32"/><circle class="cls-4" cx="45.84" cy="59.44" r="2.32"/><circle class="cls-4" cx="45.84" cy="67.6" r="2.32"/><circle class="cls-4" cx="45.84" cy="75.76" r="2.32"/><circle class="cls-4" cx="45.84" cy="83.92" r="2.32"/><circle class="cls-4" cx="45.84" cy="92.08" r="2.32"/><circle class="cls-4" cx="45.84" cy="100.24" r="2.32"/><circle class="cls-4" cx="45.84" cy="108.4" r="2.32"/><circle class="cls-4" cx="45.84" cy="116.56" r="2.32"/><circle class="cls-4" cx="45.84" cy="124.72" r="2.32"/><circle class="cls-4" cx="45.84" cy="132.88" r="2.32"/><circle class="cls-4" cx="45.84" cy="141.04" r="2.32"/><circle class="cls-4" cx="45.84" cy="149.2" r="2.32"/><circle class="cls-4" cx="45.84" cy="157.36" r="2.32"/><circle class="cls-4" cx="45.84" cy="165.52" r="2.32"/><circle class="cls-4" cx="45.84" cy="173.68" r="2.32"/><circle class="cls-4" cx="45.84" cy="181.84" r="2.32"/><circle class="cls-4" cx="45.84" cy="190" r="2.32"/><circle class="cls-4" cx="45.84" cy="198.16" r="2.32"/><circle class="cls-4" cx="45.84" cy="206.32" r="2.32"/><circle class="cls-4" cx="45.84" cy="214.48" r="2.32"/><circle class="cls-4" cx="45.84" cy="222.64" r="2.32"/><circle class="cls-4" cx="45.84" cy="230.8" r="2.32"/><circle class="cls-4" cx="45.84" cy="238.96" r="2.32"/><circle class="cls-4" cx="45.84" cy="247.12" r="2.32"/><circle class="cls-4" cx="45.84" cy="255.28" r="2.32"/><circle class="cls-4" cx="38.58" cy="2.32" r="2.32"/><circle class="cls-4" cx="38.58" cy="10.48" r="2.32"/><circle class="cls-4" cx="38.58" cy="18.64" r="2.32"/><circle class="cls-4" cx="38.58" cy="26.8" r="2.32"/><circle class="cls-4" cx="38.58" cy="34.96" r="2.32"/><circle class="cls-4" cx="38.58" cy="43.12" r="2.32"/><circle class="cls-4" cx="38.58" cy="51.28" r="2.32"/><circle class="cls-4" cx="38.58" cy="59.44" r="2.32"/><circle class="cls-4" cx="38.58" cy="67.6" r="2.32"/><circle class="cls-4" cx="38.58" cy="75.76" r="2.32"/><circle class="cls-4" cx="38.58" cy="83.92" r="2.32"/><circle class="cls-4" cx="38.58" cy="92.08" r="2.32"/><circle class="cls-4" cx="38.58" cy="100.24" r="2.32"/><circle class="cls-4" cx="38.58" cy="108.4" r="2.32"/><circle class="cls-4" cx="38.58" cy="116.56" r="2.32"/><circle class="cls-4" cx="38.58" cy="124.72" r="2.32"/><circle class="cls-4" cx="38.58" cy="132.88" r="2.32"/><circle class="cls-4" cx="38.58" cy="141.04" r="2.32"/><circle class="cls-4" cx="38.58" cy="149.2" r="2.32"/><circle class="cls-4" cx="38.58" cy="157.36" r="2.32"/><circle class="cls-4" cx="38.58" cy="165.52" r="2.32"/><circle class="cls-4" cx="38.58" cy="173.68" r="2.32"/><circle class="cls-4" cx="38.58" cy="181.84" r="2.32"/><circle class="cls-4" cx="38.58" cy="190" r="2.32"/><circle class="cls-4" cx="38.58" cy="198.16" r="2.32"/><circle class="cls-4" cx="38.58" cy="206.32" r="2.32"/><circle class="cls-4" cx="38.58" cy="214.48" r="2.32"/><circle class="cls-4" cx="38.58" cy="222.64" r="2.32"/><circle class="cls-4" cx="38.58" cy="230.8" r="2.32"/><circle class="cls-4" cx="38.58" cy="238.96" r="2.32"/><circle class="cls-4" cx="38.58" cy="247.12" r="2.32"/><circle class="cls-4" cx="38.58" cy="255.28" r="2.32"/><circle class="cls-4" cx="31.33" cy="2.32" r="2.32"/><circle class="cls-4" cx="31.33" cy="10.48" r="2.32"/><circle class="cls-4" cx="31.33" cy="18.64" r="2.32"/><circle class="cls-4" cx="31.33" cy="26.8" r="2.32"/><circle class="cls-4" cx="31.33" cy="34.96" r="2.32"/><circle class="cls-4" cx="31.33" cy="43.12" r="2.32"/><circle class="cls-4" cx="31.33" cy="51.28" r="2.32"/><circle class="cls-4" cx="31.33" cy="59.44" r="2.32"/><circle class="cls-4" cx="31.33" cy="67.6" r="2.32"/><circle class="cls-4" cx="31.33" cy="75.76" r="2.32"/><circle class="cls-4" cx="31.33" cy="83.92" r="2.32"/><circle class="cls-4" cx="31.33" cy="92.08" r="2.32"/><circle class="cls-4" cx="31.33" cy="100.24" r="2.32"/><circle class="cls-4" cx="31.33" cy="108.4" r="2.32"/><circle class="cls-4" cx="31.33" cy="116.56" r="2.32"/><circle class="cls-4" cx="31.33" cy="124.72" r="2.32"/><circle class="cls-4" cx="31.33" cy="132.88" r="2.32"/><circle class="cls-4" cx="31.33" cy="141.04" r="2.32"/><circle class="cls-4" cx="31.33" cy="149.2" r="2.32"/><circle class="cls-4" cx="31.33" cy="157.36" r="2.32"/><circle class="cls-4" cx="31.33" cy="165.52" r="2.32"/><circle class="cls-4" cx="31.33" cy="173.68" r="2.32"/><circle class="cls-4" cx="31.33" cy="181.84" r="2.32"/><circle class="cls-4" cx="31.33" cy="190" r="2.32"/><circle class="cls-4" cx="31.33" cy="198.16" r="2.32"/><circle class="cls-4" cx="31.33" cy="206.32" r="2.32"/><circle class="cls-4" cx="31.33" cy="214.48" r="2.32"/><circle class="cls-4" cx="31.33" cy="222.64" r="2.32"/><circle class="cls-4" cx="31.33" cy="230.8" r="2.32"/><circle class="cls-4" cx="31.33" cy="238.96" r="2.32"/><circle class="cls-4" cx="31.33" cy="247.12" r="2.32"/><circle class="cls-4" cx="31.33" cy="255.28" r="2.32"/><circle class="cls-4" cx="24.08" cy="2.32" r="2.32"/><circle class="cls-4" cx="24.08" cy="10.48" r="2.32"/><circle class="cls-4" cx="24.08" cy="18.64" r="2.32"/><circle class="cls-4" cx="24.08" cy="26.8" r="2.32"/><circle class="cls-4" cx="24.08" cy="34.96" r="2.32"/><circle class="cls-4" cx="24.08" cy="43.12" r="2.32"/><circle class="cls-4" cx="24.08" cy="51.28" r="2.32"/><circle class="cls-4" cx="24.08" cy="59.44" r="2.32"/><circle class="cls-4" cx="24.08" cy="67.6" r="2.32"/><circle class="cls-4" cx="24.08" cy="75.76" r="2.32"/><circle class="cls-4" cx="24.08" cy="83.92" r="2.32"/><circle class="cls-4" cx="24.08" cy="92.08" r="2.32"/><circle class="cls-4" cx="24.08" cy="100.24" r="2.32"/><circle class="cls-4" cx="24.08" cy="108.4" r="2.32"/><circle class="cls-4" cx="24.08" cy="116.56" r="2.32"/><circle class="cls-4" cx="24.08" cy="124.72" r="2.32"/><circle class="cls-4" cx="24.08" cy="132.88" r="2.32"/><circle class="cls-4" cx="24.08" cy="141.04" r="2.32"/><circle class="cls-4" cx="24.08" cy="149.2" r="2.32"/><circle class="cls-4" cx="24.08" cy="157.36" r="2.32"/><circle class="cls-4" cx="24.08" cy="165.52" r="2.32"/><circle class="cls-4" cx="24.08" cy="173.68" r="2.32"/><circle class="cls-4" cx="24.08" cy="181.84" r="2.32"/><circle class="cls-4" cx="24.08" cy="190" r="2.32"/><circle class="cls-4" cx="24.08" cy="198.16" r="2.32"/><circle class="cls-4" cx="24.08" cy="206.32" r="2.32"/><circle class="cls-4" cx="24.08" cy="214.48" r="2.32"/><circle class="cls-4" cx="24.08" cy="222.64" r="2.32"/><circle class="cls-4" cx="24.08" cy="230.8" r="2.32"/><circle class="cls-4" cx="24.08" cy="238.96" r="2.32"/><circle class="cls-4" cx="24.08" cy="247.12" r="2.32"/><circle class="cls-4" cx="24.08" cy="255.28" r="2.32"/><circle class="cls-4" cx="16.82" cy="2.32" r="2.32"/><circle class="cls-4" cx="16.82" cy="10.48" r="2.32"/><circle class="cls-4" cx="16.82" cy="18.64" r="2.32"/><circle class="cls-4" cx="16.82" cy="26.8" r="2.32"/><circle class="cls-4" cx="16.82" cy="34.96" r="2.32"/><circle class="cls-4" cx="16.82" cy="43.12" r="2.32"/><circle class="cls-4" cx="16.82" cy="51.28" r="2.32"/><circle class="cls-4" cx="16.82" cy="59.44" r="2.32"/><circle class="cls-4" cx="16.82" cy="67.6" r="2.32"/><circle class="cls-4" cx="16.82" cy="75.76" r="2.32"/><circle class="cls-4" cx="16.82" cy="83.92" r="2.32"/><circle class="cls-4" cx="16.82" cy="92.08" r="2.32"/><circle class="cls-4" cx="16.82" cy="100.24" r="2.32"/><circle class="cls-4" cx="16.82" cy="108.4" r="2.32"/><circle class="cls-4" cx="16.82" cy="116.56" r="2.32"/><circle class="cls-4" cx="16.82" cy="124.72" r="2.32"/><circle class="cls-4" cx="16.82" cy="132.88" r="2.32"/><circle class="cls-4" cx="16.82" cy="141.04" r="2.32"/><circle class="cls-4" cx="16.82" cy="149.2" r="2.32"/><circle class="cls-4" cx="16.82" cy="157.36" r="2.32"/><circle class="cls-4" cx="16.82" cy="165.52" r="2.32"/><circle class="cls-4" cx="16.82" cy="173.68" r="2.32"/><circle class="cls-4" cx="16.82" cy="181.84" r="2.32"/><circle class="cls-4" cx="16.82" cy="190" r="2.32"/><circle class="cls-4" cx="16.82" cy="198.16" r="2.32"/><circle class="cls-4" cx="16.82" cy="206.32" r="2.32"/><circle class="cls-4" cx="16.82" cy="214.48" r="2.32"/><circle class="cls-4" cx="16.82" cy="222.64" r="2.32"/><circle class="cls-4" cx="16.82" cy="230.8" r="2.32"/><circle class="cls-4" cx="16.82" cy="238.96" r="2.32"/><circle class="cls-4" cx="16.82" cy="247.12" r="2.32"/><circle class="cls-4" cx="16.82" cy="255.28" r="2.32"/><circle class="cls-4" cx="9.57" cy="2.32" r="2.32"/><circle class="cls-4" cx="9.57" cy="10.48" r="2.32"/><circle class="cls-4" cx="9.57" cy="18.64" r="2.32"/><circle class="cls-4" cx="9.57" cy="26.8" r="2.32"/><circle class="cls-4" cx="9.57" cy="34.96" r="2.32"/><circle class="cls-4" cx="9.57" cy="43.12" r="2.32"/><circle class="cls-4" cx="9.57" cy="51.28" r="2.32"/><circle class="cls-4" cx="9.57" cy="59.44" r="2.32"/><circle class="cls-4" cx="9.57" cy="67.6" r="2.32"/><circle class="cls-4" cx="9.57" cy="75.76" r="2.32"/><circle class="cls-4" cx="9.57" cy="83.92" r="2.32"/><circle class="cls-4" cx="9.57" cy="92.08" r="2.32"/><circle class="cls-4" cx="9.57" cy="100.24" r="2.32"/><circle class="cls-4" cx="9.57" cy="108.4" r="2.32"/><circle class="cls-4" cx="9.57" cy="116.56" r="2.32"/><circle class="cls-4" cx="9.57" cy="124.72" r="2.32"/><circle class="cls-4" cx="9.57" cy="132.88" r="2.32"/><circle class="cls-4" cx="9.57" cy="141.04" r="2.32"/><circle class="cls-4" cx="9.57" cy="149.2" r="2.32"/><circle class="cls-4" cx="9.57" cy="157.36" r="2.32"/><circle class="cls-4" cx="9.57" cy="165.52" r="2.32"/><circle class="cls-4" cx="9.57" cy="173.68" r="2.32"/><circle class="cls-4" cx="9.57" cy="181.84" r="2.32"/><circle class="cls-4" cx="9.57" cy="190" r="2.32"/><circle class="cls-4" cx="9.57" cy="198.16" r="2.32"/><circle class="cls-4" cx="9.57" cy="206.32" r="2.32"/><circle class="cls-4" cx="9.57" cy="214.48" r="2.32"/><circle class="cls-4" cx="9.57" cy="222.64" r="2.32"/><circle class="cls-4" cx="9.57" cy="230.8" r="2.32"/><circle class="cls-4" cx="9.57" cy="238.96" r="2.32"/><circle class="cls-4" cx="9.57" cy="247.12" r="2.32"/><circle class="cls-4" cx="9.57" cy="255.28" r="2.32"/><circle class="cls-4" cx="2.32" cy="2.32" r="2.32"/><circle class="cls-4" cx="2.32" cy="10.48" r="2.32"/><circle class="cls-4" cx="2.32" cy="18.64" r="2.32"/><circle class="cls-4" cx="2.32" cy="26.8" r="2.32"/><circle class="cls-4" cx="2.32" cy="34.96" r="2.32"/><circle class="cls-4" cx="2.32" cy="43.12" r="2.32"/><circle class="cls-4" cx="2.32" cy="51.28" r="2.32"/><circle class="cls-4" cx="2.32" cy="59.44" r="2.32"/><circle class="cls-4" cx="2.32" cy="67.6" r="2.32"/><circle class="cls-4" cx="2.32" cy="75.76" r="2.32"/><circle class="cls-4" cx="2.32" cy="83.92" r="2.32"/><circle class="cls-4" cx="2.32" cy="92.08" r="2.32"/><circle class="cls-4" cx="2.32" cy="100.24" r="2.32"/><circle class="cls-4" cx="2.32" cy="108.4" r="2.32"/><circle class="cls-4" cx="2.32" cy="116.56" r="2.32"/><circle class="cls-4" cx="2.32" cy="124.72" r="2.32"/><circle class="cls-4" cx="2.32" cy="132.88" r="2.32"/><circle class="cls-4" cx="2.32" cy="141.04" r="2.32"/><circle class="cls-4" cx="2.32" cy="149.2" r="2.32"/><circle class="cls-4" cx="2.32" cy="157.36" r="2.32"/><circle class="cls-4" cx="2.32" cy="165.52" r="2.32"/><circle class="cls-4" cx="2.32" cy="173.68" r="2.32"/><circle class="cls-4" cx="2.32" cy="181.84" r="2.32"/><circle class="cls-4" cx="2.32" cy="190" r="2.32"/><circle class="cls-4" cx="2.32" cy="198.16" r="2.32"/><circle class="cls-4" cx="2.32" cy="206.32" r="2.32"/><circle class="cls-4" cx="2.32" cy="214.48" r="2.32"/><circle class="cls-4" cx="2.32" cy="222.64" r="2.32"/><circle class="cls-4" cx="2.32" cy="230.8" r="2.32"/><circle class="cls-4" cx="2.32" cy="238.96" r="2.32"/><circle class="cls-4" cx="2.32" cy="247.12" r="2.32"/><circle class="cls-4" cx="2.32" cy="255.28" r="2.32"/></g></g></g></svg>